<svg width="705" height="479" viewBox="0 0 705 479" fill="none" xmlns="http://www.w3.org/2000/svg">
<circle cx="713" cy="333" r="66" fill="#E86229"/>
<circle cx="36" cy="387" r="66" fill="#E86229"/>
<circle cx="139" cy="241" r="66" fill="#E86229"/>
<circle cx="351" cy="109" r="66" fill="#E86229"/>
<circle cx="446" cy="413" r="66" fill="#E86229"/>
<path d="M104.629 129.919V23H120.515V158.586H105.404L34.886 51.8604V158.586H19V23H33.9173L104.629 129.919Z" fill="#202020"/>
<path d="M169.784 96.4099V143.477H241.077V158.586H153.704V23H239.14V38.1081H169.784V81.4955H231.778V96.4099H169.784Z" fill="#202020"/>
<path d="M282.163 96.4099V143.477H296.811L299.232 147.448L302.138 151.322L305.529 155.68L308.264 158.586H266.083V23H351.519V38.1081H282.163V81.4955H344.157V96.4099H282.163Z" fill="#202020"/>
<path d="M378.463 158.586V23H414.691C426.96 23 438.197 25.97 448.4 31.9099C458.603 37.7207 466.611 45.7913 472.423 56.1216C478.364 66.452 481.334 78.009 481.334 90.7928C481.334 103.577 478.364 115.134 472.423 125.464C466.611 135.794 458.603 143.929 448.4 149.869C438.197 155.68 426.96 158.586 414.691 158.586H378.463ZM414.691 143.477C423.731 143.477 432.126 141.218 439.876 136.698C447.625 132.05 453.76 125.722 458.28 117.716C462.93 109.71 465.255 100.736 465.255 90.7928C465.255 80.8499 462.93 71.8754 458.28 63.8694C453.76 55.8634 447.625 49.6006 439.876 45.0811C432.126 40.4324 423.731 38.1081 414.691 38.1081H394.543V143.477H414.691Z" fill="#202020"/>
<path d="M104.629 277.126V170.207H120.515V305.793H105.404L34.886 199.068V305.793H19V170.207H33.9173L104.629 277.126Z" fill="#202020"/>
<path d="M208.724 307.923C197.487 307.923 186.961 304.889 177.145 298.82C167.459 292.622 159.71 284.228 153.898 273.64C148.086 262.922 145.18 251.042 145.18 238C145.18 224.958 148.086 213.143 153.898 202.554C159.71 191.836 167.459 183.443 177.145 177.374C186.961 171.176 197.487 168.077 208.724 168.077C219.96 168.077 230.422 171.176 240.108 177.374C249.924 183.443 257.738 191.836 263.55 202.554C269.362 213.143 272.268 224.958 272.268 238C272.268 251.042 269.362 262.922 263.55 273.64C257.738 284.228 249.924 292.622 240.108 298.82C230.422 304.889 219.96 307.923 208.724 307.923ZM208.724 292.815C217.119 292.815 224.933 290.491 232.165 285.842C239.527 281.194 245.339 274.737 249.601 266.473C253.992 258.08 256.188 248.589 256.188 238C256.188 227.411 253.992 217.985 249.601 209.721C245.339 201.327 239.527 194.806 232.165 190.158C224.933 185.509 217.119 183.185 208.724 183.185C200.329 183.185 192.45 185.509 185.088 190.158C177.856 194.806 172.044 201.327 167.653 209.721C163.391 217.985 161.259 227.411 161.259 238C161.259 248.589 163.391 258.08 167.653 266.473C172.044 274.737 177.856 281.194 185.088 285.842C192.45 290.491 200.329 292.815 208.724 292.815Z" fill="#202020"/>
<path d="M104.629 424.333V317.414H120.515V453H105.404L34.886 346.275V453H19V317.414H33.9173L104.629 424.333Z" fill="#202020"/>
<path d="M169.784 390.824V437.892H241.077V453H153.704V317.414H239.14V332.523H169.784V375.91H231.778V390.824H169.784Z" fill="#202020"/>
<path d="M282.163 390.824V437.892H353.456V453H266.083V317.414H351.519V332.523H282.163V375.91H344.157V390.824H282.163Z" fill="#202020"/>
<path d="M378.463 453V317.414H414.691C426.96 317.414 438.197 320.384 448.4 326.324C458.603 332.135 466.611 340.206 472.423 350.536C478.364 360.866 481.334 372.423 481.334 385.207C481.334 397.991 478.364 409.548 472.423 419.878C466.611 430.209 458.603 438.344 448.4 444.284C438.197 450.095 426.96 453 414.691 453H378.463ZM414.691 437.892C423.731 437.892 432.126 435.632 439.876 431.113C447.625 426.464 453.76 420.137 458.28 412.131C462.93 404.125 465.255 395.15 465.255 385.207C465.255 375.264 462.93 366.29 458.28 358.284C453.76 350.278 447.625 344.015 439.876 339.495C432.126 334.847 423.731 332.523 414.691 332.523H394.543V437.892H414.691Z" fill="#202020"/>
<path d="M588.115 453H506.167V317.414H522.246V437.892H588.115V453Z" fill="#202020"/>
<path d="M622.707 390.824V437.892H694V453H606.627V317.414H692.063V332.523H622.707V375.91H684.701V390.824H622.707Z" fill="#202020"/>
<path d="M622.707 390.824V437.892H694V453H606.627V317.414H692.063V332.523H622.707V375.91H684.701V390.824H622.707Z" fill="#202020"/>
<path d="M436.5 413C400 439.5 492 467 446 479C409.549 479 380 449.451 380 413C380 376.549 409.549 347 446 347C452 363 436.5 376.549 436.5 413Z" fill="#E86229"/>
<path d="M205 241C205 277.451 175.451 307 139 307C141 295 136.501 274.951 136.501 238.5C136.501 202.049 120.501 180.5 139 175C175.451 175 205 204.549 205 241Z" fill="#E86229"/>
<path d="M101.999 387C101.999 423.451 72.45 453 35.9992 453C46 424 46.9994 420.951 46.9994 384.5C46.9994 348.049 29.9994 373 35.9992 321C72.45 321 101.999 350.549 101.999 387Z" fill="#E86229"/>
<path d="M740 43C740 79.4508 710.451 109 674 109C637.549 109 608 79.4508 608 43C608 6.54921 637.549 -23 674 -23C710.451 -23 740 6.54921 740 43Z" fill="#E86229"/>
<circle cx="513" cy="219" r="66" fill="#E86229"/>
</svg>
