<svg width="692" height="707" viewBox="0 0 692 707" fill="none" xmlns="http://www.w3.org/2000/svg">
<path d="M202.656 11.0304L200.7 -7.74869L207.001 -3.61609L208.483 13.0767L215.693 2.0851L220.751 5.40326L205.488 28.6742L200.429 25.356L207.186 15.0543L192.289 20.0168L186.448 16.1858L202.656 11.0304Z" fill="#EFEFEF"/>
<path d="M495.656 271.03L493.7 252.251L500.001 256.384L501.483 273.077L508.693 262.085L513.751 265.403L498.488 288.674L493.429 285.356L500.186 275.054L485.289 280.017L479.448 276.186L495.656 271.03Z" fill="#EFEFEF"/>
<path d="M285.656 163.03L283.7 144.251L290.001 148.384L291.483 165.077L298.693 154.085L303.751 157.403L288.488 180.674L283.429 177.356L290.186 167.054L275.289 172.017L269.448 168.186L285.656 163.03Z" fill="#EFEFEF"/>
<path d="M398.656 287.03L396.7 268.251L403.001 272.384L404.483 289.077L411.693 278.085L416.751 281.403L401.488 304.674L396.429 301.356L403.186 291.054L388.289 296.017L382.448 292.186L398.656 287.03Z" fill="#EFEFEF"/>
<path d="M75.6558 232.03L73.6999 213.251L80.0005 217.384L81.4832 234.077L88.6926 223.085L93.7515 226.403L78.488 249.674L73.4291 246.356L80.1861 236.054L65.2889 241.017L59.4482 237.186L75.6558 232.03Z" fill="#EFEFEF"/>
<path d="M224.035 630.248L222.079 611.469L228.379 615.602L229.862 632.294L237.072 621.303L242.13 624.621L226.867 647.892L221.808 644.574L228.565 634.272L213.668 639.235L207.827 635.404L224.035 630.248Z" fill="#EFEFEF"/>
<path d="M361.536 306.691L380.401 307.472L375.4 313.109L358.668 312.161L368.501 320.884L364.486 325.41L343.668 306.941L347.683 302.415L356.899 310.591L354.144 295.133L358.78 289.908L361.536 306.691Z" fill="#EFEFEF"/>
<path d="M608.536 362.691L627.401 363.472L622.4 369.109L605.668 368.161L615.501 376.885L611.486 381.41L590.668 362.941L594.683 358.415L603.899 366.591L601.144 351.133L605.78 345.908L608.536 362.691Z" fill="#EFEFEF"/>
<path d="M145.536 363.509L164.401 364.29L159.4 369.927L142.668 368.979L152.501 377.703L148.486 382.228L127.668 363.759L131.683 359.233L140.899 367.409L138.144 351.951L142.78 346.726L145.536 363.509Z" fill="#EFEFEF"/>
<path d="M156.682 534.673L137.901 532.736L143.238 527.417L159.88 529.389L150.601 520.079L154.886 515.808L174.532 535.52L170.247 539.791L161.55 531.065L163.351 546.663L158.404 551.594L156.682 534.673Z" fill="#EFEFEF"/>
<path d="M111.78 569.725L92.9989 567.787L98.336 562.468L114.978 564.441L105.699 555.13L109.984 550.86L129.629 570.572L125.344 574.842L116.647 566.116L118.449 581.714L113.501 586.645L111.78 569.725Z" fill="#EFEFEF"/>
<path d="M264.78 510.725L245.999 508.787L251.336 503.468L267.978 505.441L258.699 496.13L262.984 491.86L282.629 511.572L278.344 515.842L269.647 507.116L271.449 522.714L266.501 527.645L264.78 510.725Z" fill="#EFEFEF"/>
<path d="M247.78 588.725L228.999 586.787L234.336 581.468L250.978 583.441L241.699 574.13L245.984 569.86L265.629 589.572L261.344 593.842L252.647 585.116L254.449 600.714L249.501 605.645L247.78 588.725Z" fill="#EFEFEF"/>
<path d="M417.061 475.624L398.28 473.687L403.617 468.368L420.259 470.341L410.98 461.03L415.265 456.759L434.911 476.471L430.625 480.742L421.929 472.016L423.73 487.614L418.783 492.545L417.061 475.624Z" fill="#EFEFEF"/>
<path d="M408.44 555.842L389.659 553.905L394.996 548.586L411.638 550.558L402.359 541.248L406.644 536.977L426.29 556.689L422.004 560.96L413.308 552.233L415.109 567.832L410.161 572.763L408.44 555.842Z" fill="#EFEFEF"/>
<path d="M480.509 142.03L478.553 123.251L484.854 127.384L486.337 144.077L493.546 133.085L498.605 136.403L483.341 159.674L478.283 156.356L485.04 146.054L470.142 151.017L464.302 147.186L480.509 142.03Z" fill="#EFEFEF"/>
<path d="M297.143 207.9L307.343 223.788L299.857 222.934L291.018 208.696L289.529 221.756L283.517 221.07L286.671 193.42L292.682 194.105L291.286 206.346L302.355 195.208L309.295 196L297.143 207.9Z" fill="#EFEFEF"/>
<path d="M525.216 159.954L535.416 175.842L527.93 174.988L519.091 160.75L517.602 173.81L511.591 173.125L514.745 145.474L520.756 146.159L519.359 158.4L530.428 147.263L537.368 148.054L525.216 159.954Z" fill="#EFEFEF"/>
<path d="M564.143 111.9L574.343 127.788L566.857 126.934L558.018 112.696L556.529 125.756L550.517 125.07L553.671 97.4196L559.682 98.1053L558.286 110.346L569.355 99.2085L576.295 100L564.143 111.9Z" fill="#EFEFEF"/>
<path d="M391.717 202.5L387.335 220.865L382.761 214.877L386.898 198.637L376.451 206.616L372.779 201.808L394.896 184.915L398.568 189.723L388.777 197.202L404.477 197.46L408.717 203.011L391.717 202.5Z" fill="#EFEFEF"/>
<path d="M314.656 11.0304L312.7 -7.74869L319.001 -3.61609L320.483 13.0767L327.693 2.0851L332.751 5.40326L317.488 28.6742L312.429 25.356L319.186 15.0543L304.289 20.0168L298.448 16.1858L314.656 11.0304Z" fill="#EFEFEF"/>
<path d="M311.656 304.03L309.7 285.251L316.001 289.384L317.483 306.077L324.693 295.085L329.751 298.403L314.488 321.674L309.429 318.356L316.186 308.054L301.289 313.017L295.448 309.186L311.656 304.03Z" fill="#EFEFEF"/>
<path d="M615.509 92.0304L613.553 73.2513L619.854 77.3839L621.337 94.0767L628.546 83.0851L633.605 86.4033L618.341 109.674L613.283 106.356L620.04 96.0543L605.142 101.017L599.302 97.1858L615.509 92.0304Z" fill="#EFEFEF"/>
<path d="M545.374 64.894L562.927 57.9396L560.649 65.1221L544.977 71.0574L557.507 75.0309L555.678 80.7979L529.15 72.3855L530.979 66.6185L542.723 70.3426L533.922 57.3389L536.033 50.6807L545.374 64.894Z" fill="#EFEFEF"/>
<path d="M251.374 334.276L268.927 327.321L266.649 334.504L250.977 340.439L263.507 344.412L261.678 350.179L235.15 341.767L236.979 336L248.723 339.724L239.922 326.72L242.033 320.062L251.374 334.276Z" fill="#EFEFEF"/>
<path d="M499.374 527.276L516.927 520.321L514.649 527.504L498.977 533.439L511.507 537.412L509.678 543.179L483.15 534.767L484.979 529L496.723 532.724L487.922 519.72L490.033 513.062L499.374 527.276Z" fill="#EFEFEF"/>
<path d="M619.374 508.894L636.927 501.939L634.649 509.122L618.977 515.057L631.507 519.031L629.678 524.798L603.15 516.385L604.979 510.618L616.723 514.342L607.922 501.339L610.033 494.68L619.374 508.894Z" fill="#EFEFEF"/>
<path d="M581.374 568.894L598.927 561.939L596.649 569.122L580.977 575.057L593.507 579.031L591.678 584.798L565.15 576.385L566.979 570.618L578.723 574.342L569.922 561.339L572.033 554.68L581.374 568.894Z" fill="#EFEFEF"/>
<path d="M490.752 607.493L508.306 600.539L506.028 607.722L490.356 613.657L502.886 617.63L501.057 623.397L474.529 614.985L476.358 609.218L488.101 612.942L479.3 599.938L481.412 593.28L490.752 607.493Z" fill="#EFEFEF"/>
<path d="M607.374 453.894L624.927 446.939L622.649 454.122L606.977 460.057L619.507 464.031L617.678 469.798L591.15 461.385L592.979 455.618L604.723 459.342L595.922 446.339L598.033 439.68L607.374 453.894Z" fill="#EFEFEF"/>
<path d="M332.374 515.276L349.927 508.321L347.649 515.504L331.977 521.439L344.507 525.412L342.678 531.179L316.15 522.767L317.979 517L329.723 520.724L320.922 507.72L323.033 501.062L332.374 515.276Z" fill="#202020"/>
<path d="M326.374 586.894L343.927 579.94L341.649 587.122L325.977 593.057L338.507 597.031L336.678 602.798L310.15 594.385L311.979 588.619L323.723 592.343L314.922 579.339L317.033 572.681L326.374 586.894Z" fill="#EFEFEF"/>
<path d="M330.374 375.894L347.927 368.94L345.649 376.122L329.977 382.057L342.507 386.031L340.678 391.798L314.15 383.385L315.979 377.619L327.723 381.343L318.922 368.339L321.033 361.681L330.374 375.894Z" fill="#EFEFEF"/>
<path d="M663.374 325.894L680.927 318.939L678.649 326.122L662.977 332.057L675.507 336.031L673.678 341.798L647.15 333.385L648.979 327.618L660.723 331.342L651.922 318.339L654.033 311.68L663.374 325.894Z" fill="#EFEFEF"/>
<path d="M134.374 486.276L151.927 479.321L149.649 486.504L133.977 492.439L146.507 496.412L144.678 502.179L118.15 493.767L119.979 488L131.723 491.724L122.922 478.72L125.033 472.062L134.374 486.276Z" fill="#EFEFEF"/>
<path d="M88.3736 645.894L105.927 638.94L103.649 646.122L87.9769 652.057L100.507 656.031L98.6782 661.798L72.1501 653.385L73.9789 647.619L85.7226 651.343L76.9216 638.339L79.033 631.681L88.3736 645.894Z" fill="#EFEFEF"/>
<path d="M452.374 310.894L469.927 303.939L467.649 311.122L451.977 317.057L464.507 321.031L462.678 326.798L436.15 318.385L437.979 312.618L449.723 316.342L440.922 303.339L443.033 296.68L452.374 310.894Z" fill="#EFEFEF"/>
<path d="M278.374 624.894L295.927 617.94L293.649 625.122L277.977 631.057L290.507 635.031L288.678 640.798L262.15 632.385L263.979 626.619L275.723 630.343L266.922 617.339L269.033 610.681L278.374 624.894Z" fill="#EFEFEF"/>
<path d="M284.664 675.493L302.217 668.539L299.939 675.722L284.267 681.657L296.797 685.63L294.968 691.397L268.44 682.985L270.269 677.218L282.013 680.942L273.212 667.938L275.323 661.28L284.664 675.493Z" fill="#EFEFEF"/>
<path d="M216.136 93.1872L208.779 110.576L205.258 103.914L212.021 88.5811L200.4 94.7244L197.572 89.3757L222.176 76.3695L225.004 81.7182L214.112 87.4759L229.553 90.3246L232.818 96.4999L216.136 93.1872Z" fill="#EFEFEF"/>
<path d="M169.165 577.758L161.809 595.147L158.287 588.485L165.05 573.152L153.429 579.295L150.602 573.947L175.205 560.94L178.033 566.289L167.141 572.047L182.582 574.895L185.847 581.071L169.165 577.758Z" fill="#EFEFEF"/>
<path d="M172.165 676.758L164.809 694.147L161.287 687.485L168.05 672.152L156.429 678.295L153.602 672.947L178.205 659.94L181.033 665.289L170.141 671.047L185.582 673.895L188.847 680.071L172.165 676.758Z" fill="#EFEFEF"/>
<path d="M326.136 249.812L318.78 267.201L315.258 260.539L322.021 245.206L310.4 251.349L307.573 246.001L332.177 232.995L335.004 238.343L324.112 244.101L339.554 246.95L342.818 253.125L326.136 249.812Z" fill="#EFEFEF"/>
<path d="M586.165 171.758L578.809 189.147L575.288 182.485L582.051 167.152L570.43 173.295L567.602 167.947L592.206 154.94L595.033 160.289L584.142 166.047L599.583 168.895L602.847 175.071L586.165 171.758Z" fill="#EFEFEF"/>
<path d="M467.136 180.812L459.78 198.201L456.258 191.539L463.021 176.206L451.4 182.349L448.573 177.001L473.177 163.995L476.004 169.343L465.112 175.101L480.554 177.95L483.818 184.125L467.136 180.812Z" fill="#202020"/>
<path d="M254.136 231.812L246.78 249.201L243.258 242.539L250.021 227.206L238.4 233.349L235.573 228.001L260.177 214.995L263.004 220.343L252.112 226.101L267.554 228.95L270.818 235.125L254.136 231.812Z" fill="#EFEFEF"/>
<path d="M636.165 180.758L628.809 198.147L625.288 191.485L632.051 176.152L620.43 182.295L617.602 176.947L642.206 163.94L645.033 169.289L634.142 175.047L649.583 177.895L652.847 184.071L636.165 180.758Z" fill="#EFEFEF"/>
<path d="M610.165 45.758L602.809 63.1466L599.288 56.4851L606.051 41.1519L594.43 47.2952L591.602 41.9465L616.206 28.9403L619.033 34.289L608.142 40.0467L623.583 42.8954L626.847 49.0707L610.165 45.758Z" fill="#EFEFEF"/>
<path d="M213.165 264.758L205.809 282.147L202.287 275.485L209.05 260.152L197.429 266.295L194.602 260.947L219.205 247.94L222.033 253.289L211.141 259.047L226.582 261.895L229.847 268.071L213.165 264.758Z" fill="#EFEFEF"/>
<path d="M368.077 57.352L350.577 50.2639L357.184 46.6405L372.619 53.1671L366.298 41.6417L371.603 38.7324L384.986 63.1334L379.681 66.0427L373.757 55.2407L371.146 70.7241L365.021 74.083L368.077 57.352Z" fill="#EFEFEF"/>
<path d="M548.39 372.203L530.89 365.115L537.496 361.492L552.932 368.018L546.611 356.493L551.915 353.584L565.298 377.985L559.994 380.894L554.069 370.092L551.458 385.575L545.334 388.934L548.39 372.203Z" fill="#EFEFEF"/>
<path d="M517.398 570.381L533.131 559.943L532.39 567.442L518.287 576.493L531.368 577.786L530.773 583.807L503.078 581.069L503.673 575.049L515.933 576.261L504.63 565.361L505.317 558.41L517.398 570.381Z" fill="#EFEFEF"/>
<path d="M508.777 650.599L524.51 640.161L523.769 647.659L509.665 656.711L522.747 658.004L522.152 664.025L494.457 661.287L495.052 655.267L507.312 656.478L496.009 645.579L496.696 638.628L508.777 650.599Z" fill="#EFEFEF"/>
<path d="M371.398 607.381L387.131 596.943L386.39 604.442L372.287 613.493L385.368 614.786L384.773 620.807L357.078 618.069L357.673 612.049L369.933 613.261L358.63 602.361L359.317 595.41L371.398 607.381Z" fill="#EFEFEF"/>
<path d="M403.725 680.957L419.458 670.519L418.716 678.017L404.613 687.069L417.694 688.362L417.099 694.382L389.404 691.645L389.999 685.625L402.259 686.836L390.956 675.937L391.643 668.986L403.725 680.957Z" fill="#EFEFEF"/>
<path d="M497.39 218.203L479.89 211.115L486.496 207.492L501.932 214.018L495.611 202.493L500.915 199.584L514.298 223.985L508.994 226.894L503.069 216.092L500.458 231.575L494.334 234.934L497.39 218.203Z" fill="#EFEFEF"/>
<path d="M134.077 202.352L116.577 195.264L123.184 191.64L138.619 198.167L132.298 186.642L137.602 183.732L150.985 208.133L145.681 211.043L139.756 200.241L137.145 215.724L131.021 219.083L134.077 202.352Z" fill="#EFEFEF"/>
<path d="M80.0766 177.422L62.5769 170.334L69.1835 166.711L84.6189 173.237L78.2977 161.712L83.6023 158.803L96.9851 183.204L91.6806 186.113L85.7561 175.311L83.145 190.794L77.0207 194.153L80.0766 177.422Z" fill="#EFEFEF"/>
<path d="M372.077 463.422L354.577 456.334L361.184 452.711L376.619 459.237L370.298 447.712L375.603 444.803L388.986 469.204L383.681 472.113L377.757 461.311L375.146 476.794L369.021 480.153L372.077 463.422Z" fill="#EFEFEF"/>
<path d="M375.39 519.203L357.89 512.115L364.496 508.492L379.932 515.018L373.611 503.493L378.915 500.584L392.298 524.985L386.994 527.894L381.069 517.092L378.458 532.575L372.334 535.934L375.39 519.203Z" fill="#EFEFEF"/>
<path d="M462.725 459.045L478.458 448.607L477.716 456.105L463.613 465.157L476.694 466.45L476.099 472.47L448.404 469.733L448.999 463.712L461.259 464.924L449.956 454.025L450.643 447.073L462.725 459.045Z" fill="#EFEFEF"/>
<path d="M454.103 539.263L469.836 528.824L469.095 536.323L454.992 545.375L468.073 546.667L467.478 552.688L439.783 549.951L440.378 543.93L452.638 545.142L441.335 534.242L442.022 527.291L454.103 539.263Z" fill="#EFEFEF"/>
<path d="M331.725 467.957L347.458 457.519L346.716 465.017L332.613 474.069L345.694 475.362L345.099 481.382L317.404 478.645L317.999 472.625L330.259 473.836L318.956 462.937L319.643 455.986L331.725 467.957Z" fill="#EFEFEF"/>
<path d="M661.725 54.9569L677.458 44.5188L676.716 52.0172L662.613 61.0689L675.694 62.3618L675.099 68.3825L647.404 65.6452L647.999 59.6245L660.259 60.8363L648.956 49.9367L649.643 42.9856L661.725 54.9569Z" fill="#202020"/>
<path d="M280.725 552.957L296.458 542.519L295.716 550.017L281.613 559.069L294.694 560.362L294.099 566.382L266.404 563.645L266.999 557.625L279.259 558.836L267.956 547.937L268.643 540.986L280.725 552.957Z" fill="#EFEFEF"/>
<path d="M99.0766 245.352L81.5769 238.264L88.1835 234.64L103.619 241.167L97.2977 229.642L102.602 226.732L115.985 251.133L110.681 254.043L104.756 243.241L102.145 258.724L96.0207 262.083L99.0766 245.352Z" fill="#EFEFEF"/>
<path d="M284.39 265.203L266.89 258.115L273.496 254.492L288.932 261.018L282.611 249.493L287.915 246.584L301.298 270.985L295.994 273.894L290.069 263.092L287.458 278.575L281.334 281.934L284.39 265.203Z" fill="#EFEFEF"/>
<path d="M474.077 372.159L456.577 365.071L463.184 361.447L478.619 367.974L472.298 356.448L477.603 353.539L490.986 377.94L485.681 380.849L479.757 370.047L477.146 385.531L471.021 388.89L474.077 372.159Z" fill="#EFEFEF"/>
<path d="M124.077 450.159L106.577 443.071L113.184 439.447L128.619 445.974L122.298 434.448L127.603 431.539L140.986 455.94L135.681 458.849L129.757 448.047L127.146 463.531L121.021 466.89L124.077 450.159Z" fill="#EFEFEF"/>
<path d="M100.389 515.203L82.8894 508.115L89.496 504.492L104.931 511.018L98.6102 499.493L103.915 496.584L117.298 520.985L111.993 523.894L106.069 513.092L103.458 528.575L97.3332 531.934L100.389 515.203Z" fill="#EFEFEF"/>
<path d="M65.3362 596.606L58.42 614.174L54.7319 607.604L61.1069 592.105L49.6441 598.539L46.6829 593.263L70.9515 579.642L73.9127 584.917L63.1693 590.947L78.6775 593.407L82.0963 599.498L65.3362 596.606Z" fill="#EFEFEF"/>
<path d="M62.2922 334.318L61.7773 315.445L67.7436 320.047L67.9461 336.804L75.9745 326.396L80.765 330.091L63.7675 352.127L58.977 348.432L66.5016 338.677L51.2687 342.486L45.7379 338.22L62.2922 334.318Z" fill="#EFEFEF"/>
<path d="M449.077 255.352L431.577 248.264L438.184 244.64L453.619 251.167L447.298 239.642L452.603 236.732L465.986 261.133L460.681 264.043L454.757 253.241L452.146 268.724L446.021 272.083L449.077 255.352Z" fill="#EFEFEF"/>
<path d="M491.495 19.8483L484.759 2.20984L491.913 4.57667L497.653 20.3215L501.782 7.84186L507.526 9.74224L498.784 36.1637L493.04 34.2633L496.91 22.5668L483.798 31.2054L477.166 29.0113L491.495 19.8483Z" fill="#EFEFEF"/>
<path d="M72.4474 132.547L87.4037 144.071L80.0672 145.789L66.9489 135.36L69.946 148.159L64.0553 149.538L57.7101 122.441L63.6007 121.062L66.4097 133.057L73.0793 118.842L79.8803 117.25L72.4474 132.547Z" fill="#EFEFEF"/>
<path d="M394.447 403.019L409.404 414.543L402.067 416.261L388.949 405.832L391.946 418.631L386.055 420.01L379.71 392.913L385.601 391.534L388.41 403.529L395.079 389.314L401.88 387.722L394.447 403.019Z" fill="#EFEFEF"/>
<path d="M504.066 478.094L486.109 483.928L488.835 476.903L504.85 471.967L492.596 467.212L494.784 461.572L520.729 471.639L518.541 477.28L507.055 472.823L515.019 486.355L512.492 492.867L504.066 478.094Z" fill="#EFEFEF"/>
<path d="M255.359 130.477L270.315 142.001L262.978 143.719L249.86 133.29L252.857 146.089L246.966 147.468L240.621 120.371L246.512 118.992L249.321 130.988L255.99 116.772L262.791 115.18L255.359 130.477Z" fill="#EFEFEF"/>
<path d="M447.447 578.677L462.404 590.201L455.067 591.919L441.949 581.49L444.946 594.289L439.055 595.668L432.71 568.571L438.601 567.192L441.41 579.187L448.079 564.972L454.88 563.38L447.447 578.677Z" fill="#EFEFEF"/>
<path d="M399.826 639.695L414.783 651.219L407.446 652.937L394.328 642.508L397.325 655.307L391.434 656.686L385.089 629.589L390.98 628.21L393.789 640.205L400.458 625.99L407.259 624.398L399.826 639.695Z" fill="#EFEFEF"/>
<path d="M270.447 371.019L285.404 382.543L278.067 384.261L264.949 373.832L267.946 386.631L262.055 388.01L255.71 360.913L261.601 359.534L264.41 371.529L271.079 357.314L277.88 355.722L270.447 371.019Z" fill="#EFEFEF"/>
<path d="M662.447 419.019L677.404 430.543L670.067 432.261L656.949 421.832L659.946 434.631L654.055 436.01L647.71 408.913L653.601 407.534L656.41 419.529L663.079 405.314L669.88 403.722L662.447 419.019Z" fill="#EFEFEF"/>
<path d="M189.447 612.677L204.404 624.201L197.067 625.919L183.949 615.49L186.946 628.289L181.055 629.668L174.71 602.571L180.601 601.192L183.41 613.187L190.079 598.972L196.88 597.38L189.447 612.677Z" fill="#EFEFEF"/>
<path d="M210.447 430.477L225.404 442.001L218.067 443.719L204.949 433.29L207.946 446.089L202.055 447.468L195.71 420.371L201.601 418.992L204.41 430.988L211.079 416.772L217.88 415.18L210.447 430.477Z" fill="#EFEFEF"/>
<path d="M614.447 282.019L629.404 293.543L622.067 295.261L608.949 284.832L611.946 297.631L606.055 299.01L599.71 271.913L605.601 270.534L608.41 282.529L615.079 268.314L621.88 266.722L614.447 282.019Z" fill="#EFEFEF"/>
<path d="M28.4474 449.019L43.4037 460.543L36.0672 462.261L22.9489 451.832L25.946 464.631L20.0553 466.01L13.7101 438.913L19.6007 437.534L22.4097 449.529L29.0793 435.314L35.8803 433.722L28.4474 449.019Z" fill="#EFEFEF"/>
<path d="M40.4474 245.477L55.4037 257.001L48.0672 258.719L34.9489 248.29L37.946 261.089L32.0553 262.468L25.7101 235.371L31.6007 233.992L34.4097 245.988L41.0793 231.772L47.8803 230.18L40.4474 245.477Z" fill="#EFEFEF"/>
<path d="M356.447 417.019L371.404 428.543L364.067 430.261L350.949 419.832L353.946 432.631L348.055 434.01L341.71 406.913L347.601 405.534L350.41 417.529L357.079 403.314L363.88 401.722L356.447 417.019Z" fill="#EFEFEF"/>
<path d="M410.447 243.477L425.404 255.001L418.067 256.719L404.949 246.29L407.946 259.089L402.055 260.468L395.71 233.371L401.601 231.992L404.41 243.988L411.079 229.772L417.88 228.18L410.447 243.477Z" fill="#EFEFEF"/>
<path d="M456.826 624.695L471.783 636.219L464.446 637.937L451.328 627.508L454.325 640.307L448.434 641.686L442.089 614.589L447.98 613.21L450.789 625.205L457.458 610.99L464.259 609.398L456.826 624.695Z" fill="#EFEFEF"/>
<path d="M335.986 557.009L322.42 570.141L321.782 562.633L333.998 551.162L320.901 552.276L320.388 546.247L348.118 543.889L348.631 549.917L336.355 550.961L349.456 559.617L350.048 566.577L335.986 557.009Z" fill="#EFEFEF"/>
<path d="M24.8641 625.591L11.2982 638.723L10.6597 631.215L22.8764 619.744L9.7787 620.858L9.26597 614.829L36.9959 612.471L37.5086 618.499L25.2329 619.543L38.3336 628.199L38.9256 635.159L24.8641 625.591Z" fill="#EFEFEF"/>
<path d="M106.864 685.591L93.2982 698.723L92.6597 691.215L104.876 679.744L91.7787 680.858L91.266 674.829L118.996 672.471L119.509 678.499L107.233 679.543L120.334 688.199L120.926 695.159L106.864 685.591Z" fill="#EFEFEF"/>
<path d="M204.628 325.986L218.974 313.711L219.151 321.244L206.253 331.944L219.394 331.636L219.536 337.685L191.714 338.337L191.572 332.289L203.889 332L191.344 322.556L191.18 315.573L204.628 325.986Z" fill="#EFEFEF"/>
<path d="M241.628 285.986L255.974 273.711L256.151 281.244L243.253 291.944L256.394 291.636L256.536 297.685L228.714 298.337L228.572 292.289L240.889 292L228.344 282.556L228.18 275.573L241.628 285.986Z" fill="#EFEFEF"/>
<path d="M654.628 232.986L668.974 220.711L669.151 228.244L656.253 238.944L669.394 238.636L669.536 244.685L641.714 245.337L641.572 239.289L653.889 239L641.344 229.556L641.18 222.573L654.628 232.986Z" fill="#EFEFEF"/>
<path d="M347.464 134.643L361.81 122.369L361.987 129.902L349.089 140.602L362.23 140.294L362.372 146.342L334.55 146.994L334.408 140.946L346.725 140.657L334.18 131.214L334.016 124.231L347.464 134.643Z" fill="#EFEFEF"/>
<path d="M38.3873 309.918L42.6191 328.318L35.8615 324.985L32.3539 308.598L26.5389 320.386L21.1131 317.71L33.4242 292.751L38.8501 295.428L33.4001 306.477L47.5807 299.734L53.8451 302.824L38.3873 309.918Z" fill="#EFEFEF"/>
<path d="M223.134 683.15L207.924 694.336L208.302 686.81L221.952 677.088L208.823 676.428L209.127 670.386L236.922 671.782L236.618 677.824L224.314 677.206L236.13 687.547L235.78 694.523L223.134 683.15Z" fill="#EFEFEF"/>
<path d="M432.174 207.731L416.964 218.917L417.342 211.391L430.992 201.669L417.863 201.009L418.167 194.967L445.962 196.363L445.658 202.405L433.354 201.787L445.17 212.128L444.82 219.104L432.174 207.731Z" fill="#EFEFEF"/>
<path d="M42.6558 42.0304L40.6999 23.2513L47.0005 27.3839L48.4832 44.0767L55.6926 33.0851L60.7515 36.4033L45.488 59.6742L40.4291 56.356L47.1861 46.0543L32.2889 51.0168L26.4482 47.1858L42.6558 42.0304Z" fill="#202020"/>
<path d="M182.656 228.837L180.7 210.058L187.001 214.191L188.483 230.883L195.693 219.892L200.751 223.21L185.488 246.481L180.429 243.163L187.186 232.861L172.289 237.823L166.448 233.992L182.656 228.837Z" fill="#202020"/>
<path d="M173.656 497.837L171.7 479.058L178.001 483.191L179.483 499.883L186.693 488.892L191.751 492.21L176.488 515.481L171.429 512.163L178.186 501.861L163.289 506.823L157.448 502.992L173.656 497.837Z" fill="#EFEFEF"/>
<path d="M27.0625 684.864L8.30344 687.004L12.3741 680.663L29.0515 679.017L17.9898 671.915L21.2582 666.824L44.6776 681.859L41.4092 686.95L31.0417 680.294L36.15 695.142L32.3765 701.02L27.0625 684.864Z" fill="#EFEFEF"/>
<path d="M38.4643 398.844L54.8877 389.53L53.6248 396.958L38.9235 405.003L51.8825 407.206L50.8685 413.17L23.4322 408.506L24.4462 402.542L36.5919 404.606L26.0778 392.944L27.2486 386.058L38.4643 398.844Z" fill="#EFEFEF"/>
<path d="M411.656 145.03L409.7 126.251L416.001 130.384L417.483 147.077L424.693 136.085L429.751 139.403L414.488 162.674L409.429 159.356L416.186 149.054L401.289 154.017L395.448 150.186L411.656 145.03Z" fill="#EFEFEF"/>
<path d="M543.509 289.03L541.553 270.251L547.854 274.384L549.337 291.077L556.546 280.085L561.605 283.403L546.341 306.674L541.283 303.356L548.04 293.054L533.142 298.017L527.302 294.186L543.509 289.03Z" fill="#EFEFEF"/>
<path d="M111.752 59.249L129.626 65.3326L123.236 69.3251L107.455 63.6849L114.42 74.833L109.289 78.0386L94.5429 54.4364L99.6738 51.2308L106.202 61.6792L107.93 46.0726L113.854 42.3715L111.752 59.249Z" fill="#EFEFEF"/>
<path d="M400.471 352.904L418.345 358.987L411.955 362.98L396.174 357.34L403.139 368.488L398.008 371.693L383.262 348.091L388.393 344.886L394.921 355.334L396.649 339.727L402.573 336.026L400.471 352.904Z" fill="#EFEFEF"/>
<path d="M573.086 416.537L557.971 427.852L558.286 420.323L571.853 410.486L558.719 409.937L558.972 403.892L586.778 405.054L586.525 411.098L574.216 410.584L586.119 420.825L585.827 427.804L573.086 416.537Z" fill="#EFEFEF"/>
<path d="M576.086 626.537L560.971 637.852L561.286 630.323L574.853 620.486L561.719 619.937L561.972 613.892L589.778 615.054L589.525 621.098L577.216 620.584L589.119 630.825L588.827 637.804L576.086 626.537Z" fill="#EFEFEF"/>
<path d="M440.471 65.249L458.345 71.3326L451.955 75.3251L436.174 69.6849L443.139 80.833L438.008 84.0386L423.262 60.4364L428.393 57.2308L434.921 67.6792L436.649 52.0726L442.573 48.3715L440.471 65.249Z" fill="#EFEFEF"/>
<path d="M135.471 132.249L153.345 138.333L146.955 142.325L131.174 136.685L138.139 147.833L133.008 151.039L118.262 127.436L123.393 124.231L129.921 134.679L131.649 119.073L137.573 115.372L135.471 132.249Z" fill="#EFEFEF"/>
<path d="M292.471 450.249L310.345 456.333L303.955 460.325L288.174 454.685L295.139 465.833L290.008 469.039L275.262 445.436L280.393 442.231L286.921 452.679L288.649 437.073L294.573 433.372L292.471 450.249Z" fill="#EFEFEF"/>
<path d="M435.892 384.861L427.287 401.666L424.26 394.766L432.124 379.967L420.086 385.246L417.656 379.705L443.143 368.529L445.573 374.069L434.29 379.017L449.483 382.985L452.288 389.382L435.892 384.861Z" fill="#EFEFEF"/>
<path d="M226.993 517.348L218.388 534.153L215.362 527.253L223.226 512.454L211.187 517.733L208.758 512.192L234.245 501.016L236.675 506.556L225.392 511.504L240.584 515.472L243.389 521.869L226.993 517.348Z" fill="#EFEFEF"/>
<path d="M62.67 535.881L72.2905 519.635L74.8873 526.708L66.1302 540.997L78.4699 536.467L80.5549 542.146L54.4299 551.737L52.3449 546.058L63.9101 541.812L48.9898 536.919L46.5825 530.362L62.67 535.881Z" fill="#EFEFEF"/>
<path d="M164.67 455.614L174.29 439.368L176.887 446.442L168.13 460.73L180.47 456.2L182.555 461.879L156.43 471.471L154.345 465.791L165.91 461.545L150.99 456.653L148.582 450.096L164.67 455.614Z" fill="#EFEFEF"/>
<path d="M319.394 345.047L329.014 328.801L331.611 335.874L322.854 350.163L335.193 345.633L337.279 351.312L311.154 360.903L309.068 355.224L320.634 350.978L305.713 346.085L303.306 339.528L319.394 345.047Z" fill="#EFEFEF"/>
<path d="M50.4714 200.249L68.3452 206.333L61.9549 210.325L46.174 204.685L53.139 215.833L48.0081 219.039L33.2621 195.436L38.393 192.231L44.9209 202.679L46.6491 187.073L52.573 183.372L50.4714 200.249Z" fill="#EFEFEF"/>
<path d="M555.471 219.249L573.345 225.333L566.955 229.325L551.174 223.685L558.139 234.833L553.008 238.039L538.262 214.436L543.393 211.231L549.921 221.679L551.649 206.073L557.573 202.372L555.471 219.249Z" fill="#EFEFEF"/>
<path d="M358.471 183.031L376.345 189.115L369.955 193.107L354.174 187.467L361.139 198.615L356.008 201.821L341.262 178.219L346.393 175.013L352.921 185.461L354.649 169.855L360.573 166.154L358.471 183.031Z" fill="#EFEFEF"/>
<path d="M263.56 419.031L281.434 425.115L275.044 429.107L259.263 423.467L266.228 434.615L261.097 437.821L246.351 414.219L251.482 411.013L258.01 421.461L259.738 405.855L265.662 402.154L263.56 419.031Z" fill="#EFEFEF"/>
<path d="M553.471 498.904L571.345 504.987L564.955 508.98L549.174 503.34L556.139 514.488L551.008 517.693L536.262 494.091L541.393 490.886L547.921 501.334L549.649 485.727L555.573 482.026L553.471 498.904Z" fill="#EFEFEF"/>
<path d="M502.939 692.249L520.813 698.333L514.423 702.325L498.642 696.685L505.607 707.833L500.476 711.039L485.73 687.436L490.861 684.231L497.389 694.679L499.117 679.073L505.041 675.372L502.939 692.249Z" fill="#EFEFEF"/>
<path d="M669.471 625.904L687.345 631.987L680.955 635.98L665.174 630.34L672.139 641.488L667.008 644.693L652.262 621.091L657.393 617.886L663.921 628.334L665.649 612.727L671.573 609.026L669.471 625.904Z" fill="#EFEFEF"/>
<path d="M335.939 680.249L353.813 686.333L347.423 690.325L331.642 684.685L338.607 695.833L333.476 699.039L318.73 675.436L323.861 672.231L330.389 682.679L332.117 667.073L338.041 663.372L335.939 680.249Z" fill="#EFEFEF"/>
<path d="M137.471 645.904L155.345 651.987L148.955 655.98L133.174 650.34L140.139 661.488L135.008 664.693L120.262 641.091L125.393 637.886L131.921 648.334L133.649 632.727L139.573 629.026L137.471 645.904Z" fill="#EFEFEF"/>
<path d="M145.471 262.904L163.345 268.987L156.955 272.98L141.174 267.34L148.139 278.488L143.008 281.693L128.262 258.091L133.393 254.886L139.921 265.334L141.649 249.727L147.573 246.026L145.471 262.904Z" fill="#EFEFEF"/>
<path d="M429.471 425.904L447.345 431.987L440.955 435.98L425.174 430.34L432.139 441.488L427.008 444.693L412.262 421.091L417.393 417.886L423.921 428.334L425.649 412.727L431.573 409.026L429.471 425.904Z" fill="#202020"/>
<path d="M646.471 656.904L664.345 662.987L657.955 666.98L642.174 661.34L649.139 672.488L644.008 675.693L629.262 652.091L634.393 648.886L640.921 659.334L642.649 643.727L648.573 640.026L646.471 656.904Z" fill="#202020"/>
<path d="M191.471 177.904L209.345 183.987L202.955 187.98L187.174 182.34L194.139 193.488L189.008 196.693L174.262 173.091L179.393 169.886L185.921 180.334L187.649 164.727L193.573 161.026L191.471 177.904Z" fill="#EFEFEF"/>
<path d="M444.397 502.975L435.791 519.78L432.765 512.88L440.629 498.081L428.591 503.36L426.161 497.819L451.648 486.642L454.078 492.183L442.795 497.131L457.987 501.099L460.793 507.496L444.397 502.975Z" fill="#EFEFEF"/>
<path d="M164.083 306.878L173.703 290.632L176.3 297.706L167.543 311.994L179.882 307.464L181.968 313.143L155.843 322.735L153.757 317.055L165.323 312.809L150.402 307.917L147.995 301.36L164.083 306.878Z" fill="#EFEFEF"/>
<path d="M219.912 377.279L229.533 361.033L232.13 368.107L223.372 382.395L235.712 377.865L237.797 383.544L211.672 393.136L209.587 387.456L221.152 383.21L206.232 378.318L203.825 371.761L219.912 377.279Z" fill="#EFEFEF"/>
<path d="M115.471 319.249L133.345 325.333L126.955 329.325L111.174 323.685L118.139 334.833L113.008 338.039L98.2621 314.436L103.393 311.231L109.921 321.679L111.649 306.073L117.573 302.372L115.471 319.249Z" fill="#EFEFEF"/>
<path d="M515.84 332.778L534.445 329.565L530.745 336.129L514.19 338.729L525.64 345.184L522.669 350.455L498.426 336.788L501.397 331.518L512.129 337.568L506.178 323.038L509.608 316.953L515.84 332.778Z" fill="#EFEFEF"/>
<path d="M165.84 410.778L184.445 407.565L180.745 414.129L164.19 416.729L175.64 423.184L172.669 428.455L148.426 414.788L151.397 409.518L162.129 415.568L156.178 401.038L159.608 394.953L165.84 410.778Z" fill="#EFEFEF"/>
<path d="M115.104 356.811L125.5 372.571L118.004 371.81L108.99 357.682L107.662 370.76L101.643 370.149L104.454 342.461L110.473 343.072L109.229 355.329L120.158 344.056L127.108 344.762L115.104 356.811Z" fill="#EFEFEF"/>
<path d="M665.873 540.756L676.269 556.517L668.772 555.756L659.758 541.628L658.43 554.706L652.411 554.095L655.223 526.407L661.242 527.018L659.997 539.275L670.927 528.002L677.876 528.707L665.873 540.756Z" fill="#EFEFEF"/>
<path d="M225.326 208.584L243.932 205.372L240.231 211.936L223.676 214.536L235.127 220.991L232.156 226.261L207.912 212.595L210.883 207.325L221.616 213.375L215.664 198.844L219.094 192.759L225.326 208.584Z" fill="#EFEFEF"/>
<path d="M512.326 416.821L530.932 413.609L527.231 420.173L510.676 422.773L522.127 429.228L519.156 434.498L494.912 420.832L497.883 415.562L508.616 421.612L502.664 407.081L506.094 400.996L512.326 416.821Z" fill="#EFEFEF"/>
<path d="M216.326 477.584L234.932 474.372L231.231 480.936L214.676 483.536L226.127 489.991L223.156 495.261L198.912 481.595L201.883 476.325L212.616 482.375L206.664 467.844L210.094 461.759L216.326 477.584Z" fill="#EFEFEF"/>
<path d="M207.705 557.802L226.31 554.589L222.61 561.153L206.055 563.754L217.506 570.209L214.535 575.479L190.291 561.813L193.262 556.542L203.995 562.592L198.043 548.062L201.473 541.977L207.705 557.802Z" fill="#EFEFEF"/>
<path d="M25.5647 495.215L22.1699 476.642L28.7698 480.278L31.5322 496.807L37.8747 485.293L43.1739 488.212L29.7458 512.588L24.4467 509.669L30.3911 498.878L15.9198 504.972L9.80171 501.602L25.5647 495.215Z" fill="#EFEFEF"/>
<path d="M29.5647 564.215L26.1699 545.642L32.7698 549.278L35.5322 565.807L41.8747 554.293L47.1739 557.212L33.7458 581.588L28.4467 578.669L34.3911 567.878L19.9198 573.972L13.8017 570.602L29.5647 564.215Z" fill="#202020"/>
<path d="M86.8727 408.756L97.2686 424.517L89.7722 423.756L80.7583 409.628L79.4303 422.706L73.4113 422.095L76.2228 394.407L82.2418 395.018L80.9972 407.275L91.927 396.002L98.8763 396.707L86.8727 408.756Z" fill="#EFEFEF"/>
<path d="M490.509 77.0304L488.553 58.2513L494.854 62.3839L496.337 79.0767L503.546 68.0851L508.605 71.4033L493.341 94.6742L488.283 91.356L495.04 81.0543L480.142 86.0168L474.302 82.1858L490.509 77.0304Z" fill="#EFEFEF"/>
</svg>
