<svg width="935" height="1080" viewBox="0 0 935 1080" fill="none" xmlns="http://www.w3.org/2000/svg">
<path d="M268.787 15.2755L266.189 -9.66962L274.559 -4.18011L276.528 17.9936L286.105 3.39301L292.825 7.80065L272.549 38.7123L265.829 34.3047L274.805 20.6205L255.016 27.2124L247.258 22.1236L268.787 15.2755Z" fill="#EFEFEF"/>
<path d="M657.991 360.644L655.393 335.699L663.763 341.189L665.732 363.362L675.309 348.762L682.029 353.169L661.753 384.081L655.034 379.673L664.009 365.989L644.221 372.581L636.462 367.492L657.991 360.644Z" fill="#EFEFEF"/>
<path d="M379.04 217.183L376.442 192.238L384.811 197.728L386.78 219.901L396.357 205.301L403.077 209.708L382.802 240.62L376.082 236.212L385.057 222.528L365.269 229.12L357.51 224.031L379.04 217.183Z" fill="#EFEFEF"/>
<path d="M529.142 381.898L526.544 356.952L534.914 362.442L536.883 384.616L546.46 370.015L553.179 374.423L532.904 405.334L526.184 400.927L535.16 387.243L515.371 393.834L507.613 388.746L529.142 381.898Z" fill="#EFEFEF"/>
<path d="M100.088 308.839L97.4899 283.894L105.859 289.383L107.829 311.557L117.405 296.956L124.125 301.364L103.85 332.276L97.1302 327.868L106.106 314.184L86.3173 320.776L78.5588 315.687L100.088 308.839Z" fill="#EFEFEF"/>
<path d="M297.186 837.808L294.588 812.863L302.957 818.352L304.926 840.526L314.503 825.925L321.223 830.333L300.948 861.245L294.228 856.837L303.203 843.153L283.415 849.745L275.656 844.656L297.186 837.808Z" fill="#EFEFEF"/>
<path d="M193.902 1035.69L191.304 1010.74L199.673 1016.23L201.643 1038.41L211.219 1023.81L217.939 1028.21L197.664 1059.13L190.944 1054.72L199.92 1041.03L180.131 1047.63L172.373 1042.54L193.902 1035.69Z" fill="#EFEFEF"/>
<path d="M600.902 942.689L598.304 917.744L606.673 923.233L608.643 945.407L618.219 930.807L624.939 935.214L604.664 966.126L597.944 961.718L606.92 948.034L587.131 954.626L579.373 949.537L600.902 942.689Z" fill="#EFEFEF"/>
<path d="M479.685 406.895L504.744 407.933L498.101 415.42L475.876 414.161L488.938 425.749L483.604 431.761L455.951 407.227L461.284 401.216L473.526 412.076L469.866 391.542L476.024 384.602L479.685 406.895Z" fill="#EFEFEF"/>
<path d="M807.785 481.282L832.844 482.32L826.201 489.807L803.976 488.548L817.038 500.137L811.704 506.148L784.051 481.614L789.384 475.603L801.626 486.464L797.966 465.93L804.124 458.989L807.785 481.282Z" fill="#EFEFEF"/>
<path d="M192.764 482.369L217.823 483.407L211.18 490.894L188.955 489.635L202.016 501.223L196.683 507.235L169.029 482.701L174.363 476.689L186.605 487.55L182.945 467.016L189.102 460.075L192.764 482.369Z" fill="#EFEFEF"/>
<path d="M208.654 710.756L183.706 708.182L190.796 701.117L212.902 703.737L200.576 691.37L206.268 685.697L232.364 711.881L226.672 717.554L215.12 705.963L217.512 726.682L210.941 733.232L208.654 710.756Z" fill="#EFEFEF"/>
<path d="M149.008 757.316L124.061 754.742L131.15 747.677L153.256 750.298L140.931 737.93L146.623 732.257L172.719 758.441L167.026 764.114L155.474 752.523L157.867 773.243L151.295 779.792L149.008 757.316Z" fill="#EFEFEF"/>
<path d="M798.044 1057.86L773.096 1055.29L780.185 1048.22L802.292 1050.84L789.966 1038.47L795.658 1032.8L821.754 1058.98L816.062 1064.66L804.509 1053.07L806.902 1073.79L800.33 1080.34L798.044 1057.86Z" fill="#EFEFEF"/>
<path d="M352.244 678.944L327.297 676.37L334.386 669.305L356.492 671.925L344.166 659.558L349.859 653.885L375.954 680.069L370.262 685.742L358.71 674.151L361.103 694.87L354.531 701.42L352.244 678.944Z" fill="#EFEFEF"/>
<path d="M835.044 937.86L810.096 935.286L817.185 928.22L839.292 930.841L826.966 918.473L832.658 912.8L858.754 938.985L853.062 944.658L841.509 933.066L843.902 953.786L837.33 960.336L835.044 937.86Z" fill="#EFEFEF"/>
<path d="M329.662 782.555L304.715 779.981L311.804 772.916L333.91 775.536L321.584 763.169L327.277 757.496L353.372 783.68L347.68 789.353L336.128 777.761L338.521 798.481L331.949 805.031L329.662 782.555Z" fill="#EFEFEF"/>
<path d="M554.526 632.319L529.578 629.745L536.668 622.68L558.774 625.3L546.448 612.933L552.14 607.26L578.236 633.444L572.544 639.117L560.992 627.526L563.385 648.245L556.813 654.795L554.526 632.319Z" fill="#EFEFEF"/>
<path d="M543.074 738.876L518.126 736.302L525.216 729.237L547.322 731.857L534.996 719.489L540.688 713.816L566.784 740.001L561.092 745.674L549.54 734.082L551.932 754.802L545.36 761.352L543.074 738.876Z" fill="#EFEFEF"/>
<path d="M637.871 189.288L635.273 164.343L643.643 169.833L645.612 192.006L655.189 177.406L661.908 181.813L641.633 212.725L634.913 208.317L643.889 194.633L624.1 201.225L616.342 196.136L637.871 189.288Z" fill="#EFEFEF"/>
<path d="M394.792 275.421L408.341 296.526L398.396 295.392L386.656 276.478L384.677 293.827L376.692 292.916L380.882 256.187L388.867 257.097L387.012 273.357L401.715 258.563L410.933 259.614L394.792 275.421Z" fill="#EFEFEF"/>
<path d="M697.751 211.733L711.3 232.838L701.355 231.704L689.615 212.79L687.636 230.139L679.651 229.228L683.841 192.499L691.826 193.409L689.971 209.669L704.674 194.875L713.892 195.926L697.751 211.733Z" fill="#EFEFEF"/>
<path d="M749.459 147.9L763.008 169.005L753.063 167.871L741.323 148.958L739.344 166.306L731.359 165.396L735.549 128.666L743.534 129.577L741.679 145.837L756.382 131.042L765.6 132.094L749.459 147.9Z" fill="#EFEFEF"/>
<path d="M520.926 268.537L515.105 292.932L509.03 284.978L514.525 263.405L500.648 274.004L495.77 267.617L525.149 245.179L530.027 251.565L517.021 261.499L537.876 261.842L543.508 269.216L520.926 268.537Z" fill="#EFEFEF"/>
<path d="M417.562 15.2755L414.964 -9.66962L423.333 -4.18011L425.302 17.9936L434.879 3.39301L441.599 7.80065L421.324 38.7123L414.604 34.3047L423.579 20.6205L403.791 27.2124L396.032 22.1236L417.562 15.2755Z" fill="#EFEFEF"/>
<path d="M413.576 404.48L410.978 379.534L419.348 385.024L421.317 407.198L430.894 392.597L437.614 397.005L417.338 427.916L410.619 423.509L419.594 409.825L399.806 416.416L392.047 411.328L413.576 404.48Z" fill="#EFEFEF"/>
<path d="M817.197 122.871L814.599 97.9261L822.968 103.416L824.938 125.589L834.514 110.989L841.234 115.396L820.959 146.308L814.239 141.9L823.215 128.216L803.426 134.808L795.668 129.719L817.197 122.871Z" fill="#EFEFEF"/>
<path d="M723.732 85.976L747.048 76.7382L744.023 86.279L723.205 94.1631L739.849 99.4412L737.42 107.102L702.181 95.9272L704.611 88.2667L720.21 93.2135L708.519 75.9402L711.324 67.0958L723.732 85.976Z" fill="#EFEFEF"/>
<path d="M333.199 443.807L356.516 434.569L353.491 444.11L332.673 451.994L349.317 457.272L346.888 464.932L311.649 453.758L314.078 446.097L329.678 451.044L317.987 433.771L320.792 424.926L333.199 443.807Z" fill="#EFEFEF"/>
<path d="M662.628 700.177L685.945 690.939L682.919 700.48L662.101 708.364L678.745 713.642L676.316 721.302L641.078 710.128L643.507 702.467L659.107 707.414L647.416 690.141L650.221 681.296L662.628 700.177Z" fill="#EFEFEF"/>
<path d="M822.029 675.759L845.345 666.521L842.32 676.062L821.502 683.946L838.146 689.224L835.717 696.885L800.478 685.71L802.907 678.05L818.507 682.997L806.816 665.723L809.621 656.879L822.029 675.759Z" fill="#EFEFEF"/>
<path d="M771.551 755.459L794.868 746.222L791.843 755.762L771.025 763.647L787.669 768.925L785.24 776.585L750.001 765.411L752.43 757.75L768.03 762.697L756.339 745.424L759.144 736.579L771.551 755.459Z" fill="#EFEFEF"/>
<path d="M651.176 806.733L674.493 797.495L671.467 807.036L650.649 814.92L667.293 820.198L664.864 827.859L629.626 816.684L632.055 809.024L647.655 813.97L635.964 796.697L638.768 787.853L651.176 806.733Z" fill="#EFEFEF"/>
<path d="M806.089 602.701L829.405 593.463L826.38 603.004L805.562 610.888L822.206 616.166L819.777 623.826L784.538 612.652L786.968 604.991L802.567 609.938L790.876 592.665L793.681 583.82L806.089 602.701Z" fill="#EFEFEF"/>
<path d="M440.795 684.236L464.112 674.998L461.086 684.539L440.268 692.423L456.912 697.701L454.483 705.362L419.245 694.187L421.674 686.527L437.274 691.474L425.583 674.2L428.388 665.356L440.795 684.236Z" fill="#202020"/>
<path d="M317.591 1038.99L340.908 1029.75L337.882 1039.29L317.064 1047.17L333.708 1052.45L331.279 1060.11L296.041 1048.94L298.47 1041.28L314.07 1046.22L302.379 1028.95L305.184 1020.11L317.591 1038.99Z" fill="#202020"/>
<path d="M432.825 779.37L456.142 770.132L453.116 779.673L432.298 787.557L448.942 792.835L446.513 800.496L411.275 789.321L413.704 781.661L429.303 786.608L417.613 769.334L420.417 760.49L432.825 779.37Z" fill="#EFEFEF"/>
<path d="M429.591 830.986L452.908 821.748L449.882 831.289L429.064 839.173L445.708 844.451L443.279 852.111L408.041 840.937L410.47 833.276L426.07 838.223L414.379 820.95L417.184 812.106L429.591 830.986Z" fill="#EFEFEF"/>
<path d="M438.138 499.09L461.455 489.852L458.429 499.393L437.611 507.277L454.255 512.555L451.826 520.216L416.588 509.041L419.017 501.381L434.616 506.328L422.926 489.054L425.73 480.21L438.138 499.09Z" fill="#EFEFEF"/>
<path d="M880.476 432.673L903.793 423.435L900.767 432.976L879.949 440.86L896.593 446.138L894.164 453.798L858.926 442.624L861.355 434.963L876.954 439.91L865.264 422.637L868.068 413.793L880.476 432.673Z" fill="#EFEFEF"/>
<path d="M177.783 645.714L201.1 636.476L198.075 646.017L177.257 653.901L193.901 659.179L191.472 666.84L156.233 655.665L158.662 648.005L174.262 652.952L162.571 635.678L165.376 626.834L177.783 645.714Z" fill="#EFEFEF"/>
<path d="M116.68 857.742L139.997 848.504L136.971 858.045L116.153 865.929L132.797 871.207L130.368 878.868L95.1296 867.693L97.5589 860.033L113.158 864.98L101.468 847.706L104.272 838.862L116.68 857.742Z" fill="#EFEFEF"/>
<path d="M600.196 412.747L623.513 403.51L620.487 413.051L599.669 420.935L616.313 426.213L613.884 433.873L578.646 422.699L581.075 415.038L596.675 419.985L584.984 402.712L587.789 393.867L600.196 412.747Z" fill="#EFEFEF"/>
<path d="M369.065 829.847L392.381 820.609L389.356 830.15L368.538 838.034L385.182 843.312L382.753 850.972L347.514 839.798L349.944 832.137L365.543 837.084L353.852 819.811L356.657 810.966L369.065 829.847Z" fill="#EFEFEF"/>
<path d="M263.591 1003.99L286.908 994.748L283.882 1004.29L263.064 1012.17L279.708 1017.45L277.279 1025.11L242.041 1013.94L244.47 1006.28L260.07 1011.22L248.379 993.95L251.184 985.106L263.591 1003.99Z" fill="#EFEFEF"/>
<path d="M377.42 897.06L400.737 887.822L397.711 897.363L376.893 905.247L393.537 910.525L391.108 918.186L355.87 907.011L358.299 899.351L373.899 904.297L362.208 887.024L365.013 878.18L377.42 897.06Z" fill="#EFEFEF"/>
<path d="M287.761 123.436L277.989 146.534L273.311 137.685L282.295 117.318L266.858 125.478L263.103 118.373L295.785 101.096L299.541 108.201L285.073 115.849L305.584 119.634L309.92 127.836L287.761 123.436Z" fill="#EFEFEF"/>
<path d="M225.368 767.111L215.596 790.209L210.918 781.36L219.902 760.992L204.465 769.153L200.709 762.048L233.392 744.771L237.148 751.876L222.679 759.524L243.191 763.308L247.527 771.511L225.368 767.111Z" fill="#EFEFEF"/>
<path d="M229.353 898.617L219.581 921.715L214.903 912.866L223.887 892.498L208.45 900.659L204.694 893.554L237.377 876.277L241.132 883.382L226.664 891.03L247.176 894.814L251.512 903.017L229.353 898.617Z" fill="#EFEFEF"/>
<path d="M433.878 331.487L424.107 354.585L419.429 345.737L428.413 325.369L412.976 333.529L409.22 326.424L441.902 309.148L445.658 316.253L431.19 323.901L451.702 327.685L456.038 335.888L433.878 331.487Z" fill="#EFEFEF"/>
<path d="M779.285 227.805L769.514 250.903L764.836 242.054L773.82 221.686L758.383 229.847L754.627 222.742L787.309 205.465L791.065 212.57L776.597 220.218L797.108 224.002L801.445 232.205L779.285 227.805Z" fill="#EFEFEF"/>
<path d="M621.174 239.832L611.403 262.93L606.725 254.081L615.709 233.714L600.272 241.874L596.516 234.769L629.198 217.492L632.954 224.597L618.486 232.245L638.998 236.03L643.334 244.232L621.174 239.832Z" fill="#202020"/>
<path d="M338.238 307.578L328.466 330.676L323.789 321.827L332.772 301.459L317.335 309.619L313.58 302.515L346.262 285.238L350.018 292.343L335.55 299.991L356.061 303.775L360.397 311.978L338.238 307.578Z" fill="#EFEFEF"/>
<path d="M845.703 239.76L835.931 262.858L831.253 254.01L840.237 233.642L824.8 241.802L821.044 234.697L853.727 217.421L857.482 224.525L843.014 232.174L863.526 235.958L867.862 244.161L845.703 239.76Z" fill="#EFEFEF"/>
<path d="M811.166 60.4337L801.394 83.5318L796.717 74.6831L805.7 54.3154L790.264 62.4757L786.508 55.3709L819.19 38.0942L822.946 45.199L808.478 52.8472L828.989 56.6314L833.326 64.8342L811.166 60.4337Z" fill="#EFEFEF"/>
<path d="M283.814 351.34L274.043 374.438L269.365 365.59L278.349 345.222L262.912 353.382L259.156 346.277L291.838 329.001L295.594 336.106L281.126 343.754L301.638 347.538L305.974 355.741L283.814 351.34Z" fill="#EFEFEF"/>
<path d="M489.29 76.8365L466.044 67.4211L474.82 62.6079L495.323 71.2775L486.927 55.9679L493.973 52.1033L511.75 84.5162L504.704 88.3807L496.834 74.032L493.366 94.5992L485.23 99.061L489.29 76.8365Z" fill="#EFEFEF"/>
<path d="M728.806 495.066L705.56 485.651L714.336 480.838L734.839 489.507L726.443 474.198L733.489 470.333L751.266 502.746L744.22 506.611L736.35 492.262L732.882 512.829L724.747 517.291L728.806 495.066Z" fill="#EFEFEF"/>
<path d="M686.54 757.588L707.438 743.722L706.454 753.683L687.72 765.706L705.096 767.424L704.305 775.421L667.517 771.785L668.307 763.788L684.593 765.397L669.579 750.919L670.492 741.686L686.54 757.588Z" fill="#EFEFEF"/>
<path d="M675.088 864.144L695.986 850.278L695.002 860.239L676.267 872.263L693.644 873.98L692.853 881.977L656.065 878.341L656.855 870.344L673.141 871.954L658.127 857.475L659.04 848.242L675.088 864.144Z" fill="#EFEFEF"/>
<path d="M492.602 806.736L513.501 792.871L512.516 802.831L493.782 814.855L511.158 816.572L510.367 824.57L473.579 820.934L474.369 812.936L490.655 814.546L475.641 800.067L476.554 790.834L492.602 806.736Z" fill="#EFEFEF"/>
<path d="M447.369 975.929L468.268 962.063L467.284 972.024L448.549 984.048L465.925 985.765L465.135 993.763L428.347 990.127L429.137 982.129L445.423 983.739L430.409 969.26L431.322 960.027L447.369 975.929Z" fill="#EFEFEF"/>
<path d="M535.542 904.469L556.441 890.604L555.456 900.564L536.722 912.588L554.098 914.306L553.308 922.303L516.519 918.667L517.31 910.67L533.596 912.279L518.582 897.801L519.494 888.567L535.542 904.469Z" fill="#EFEFEF"/>
<path d="M661.061 290.502L637.815 281.087L646.591 276.273L667.094 284.943L658.698 269.633L665.744 265.769L683.521 298.182L676.475 302.046L668.605 287.697L665.137 308.265L657.001 312.726L661.061 290.502Z" fill="#EFEFEF"/>
<path d="M178.458 269.446L155.213 260.03L163.988 255.217L184.492 263.887L176.095 248.577L183.141 244.713L200.918 277.126L193.872 280.99L186.003 266.641L182.534 287.209L174.399 291.67L178.458 269.446Z" fill="#EFEFEF"/>
<path d="M106.728 236.331L83.4821 226.915L92.2579 222.102L112.761 230.772L104.365 215.462L111.411 211.597L129.188 244.01L122.142 247.875L114.272 233.526L110.804 254.093L102.668 258.555L106.728 236.331Z" fill="#EFEFEF"/>
<path d="M494.603 616.236L471.357 606.821L480.133 602.008L500.636 610.677L492.24 595.368L499.286 591.503L517.063 623.916L510.017 627.781L502.147 613.432L498.679 633.999L490.543 638.461L494.603 616.236Z" fill="#EFEFEF"/>
<path d="M499.003 690.333L475.758 680.917L484.533 676.104L505.037 684.774L496.64 669.464L503.686 665.599L521.463 698.012L514.417 701.877L506.547 687.528L503.079 708.095L494.944 712.557L499.003 690.333Z" fill="#EFEFEF"/>
<path d="M613.914 609.694L634.813 595.829L633.829 605.79L615.094 617.813L632.47 619.531L631.68 627.528L594.891 623.892L595.682 615.895L611.968 617.504L596.954 603.026L597.866 593.792L613.914 609.694Z" fill="#EFEFEF"/>
<path d="M730.369 969.929L751.268 956.063L750.284 966.024L731.549 978.048L748.925 979.765L748.135 987.763L711.347 984.127L712.137 976.129L728.423 977.739L713.409 963.26L714.322 954.027L730.369 969.929Z" fill="#EFEFEF"/>
<path d="M602.463 716.251L623.361 702.386L622.377 712.346L603.642 724.37L621.019 726.087L620.228 734.085L583.44 730.449L584.23 722.451L600.516 724.061L585.502 709.583L586.415 700.349L602.463 716.251Z" fill="#EFEFEF"/>
<path d="M439.902 621.533L460.8 607.667L459.816 617.628L441.081 629.652L458.458 631.369L457.667 639.367L420.879 635.731L421.669 627.733L437.955 629.343L422.941 614.864L423.854 605.631L439.902 621.533Z" fill="#EFEFEF"/>
<path d="M878.254 72.9284L899.153 59.063L898.168 69.0235L879.434 81.0472L896.81 82.7646L896.02 90.7621L859.231 87.126L860.022 79.1285L876.308 80.7382L861.294 66.2599L862.206 57.0264L878.254 72.9284Z" fill="#202020"/>
<path d="M372.156 734.442L393.055 720.577L392.07 730.537L373.336 742.561L390.712 744.278L389.922 752.276L353.133 748.64L353.924 740.642L370.209 742.252L355.196 727.774L356.108 718.54L372.156 734.442Z" fill="#EFEFEF"/>
<path d="M131.966 326.565L108.721 317.149L117.497 312.336L138 321.006L129.603 305.696L136.65 301.831L154.427 334.244L147.38 338.109L139.511 323.76L136.042 344.327L127.907 348.789L131.966 326.565Z" fill="#EFEFEF"/>
<path d="M378.124 352.934L354.879 343.518L363.654 338.705L384.158 347.375L375.761 332.065L382.807 328.201L400.584 360.613L393.538 364.478L385.669 350.129L382.2 370.696L374.065 375.158L378.124 352.934Z" fill="#EFEFEF"/>
<path d="M630.094 495.007L606.849 485.591L615.625 480.778L636.128 489.448L627.731 474.138L634.778 470.274L652.555 502.687L645.508 506.551L637.639 492.202L634.17 512.77L626.035 517.231L630.094 495.007Z" fill="#EFEFEF"/>
<path d="M165.175 598.618L141.93 589.202L150.706 584.389L171.209 593.059L162.812 577.749L169.859 573.885L187.636 606.297L180.589 610.162L172.72 595.813L169.251 616.38L161.116 620.842L165.175 598.618Z" fill="#EFEFEF"/>
<path d="M133.71 685.019L110.464 675.604L119.24 670.791L139.743 679.46L131.347 664.151L138.393 660.286L156.17 692.699L149.124 696.563L141.254 682.215L137.786 702.782L129.65 707.244L133.71 685.019Z" fill="#EFEFEF"/>
<path d="M87.4392 792.131L78.2521 815.468L73.3532 806.74L81.8214 786.152L66.5948 794.699L62.6613 787.69L94.8983 769.597L98.8318 776.605L84.5609 784.615L105.161 787.881L109.702 795.972L87.4392 792.131Z" fill="#EFEFEF"/>
<path d="M82.2899 444.679L81.606 419.608L89.5313 425.721L89.8002 447.98L100.465 434.155L106.828 439.063L84.2496 468.334L77.8863 463.426L87.8815 450.468L67.647 455.528L60.3002 449.861L82.2899 444.679Z" fill="#EFEFEF"/>
<path d="M596.885 339.848L573.64 330.433L582.416 325.62L602.919 334.289L594.522 318.98L601.569 315.115L619.346 347.528L612.299 351.392L604.43 337.044L600.961 357.611L592.826 362.073L596.885 339.848Z" fill="#EFEFEF"/>
<path d="M652.638 27.0732L643.691 3.64339L653.193 6.78735L660.818 27.7019L666.302 11.1246L673.932 13.649L662.32 48.7456L654.69 46.2213L659.831 30.6844L642.413 42.1594L633.605 39.2449L652.638 27.0732Z" fill="#EFEFEF"/>
<path d="M96.0651 175.342L115.932 190.649L106.187 192.931L88.7612 179.078L92.7423 196.08L84.9175 197.912L76.4889 161.918L84.3136 160.086L88.0449 176.02L96.9044 157.137L105.939 155.022L96.0651 175.342Z" fill="#EFEFEF"/>
<path d="M523.791 534.621L543.658 549.928L533.912 552.21L516.487 538.357L520.468 555.358L512.643 557.191L504.214 521.197L512.039 519.364L515.771 535.298L524.63 516.416L533.664 514.3L523.791 534.621Z" fill="#EFEFEF"/>
<path d="M670.266 635.341L646.414 643.091L650.035 633.76L671.308 627.203L655.03 620.887L657.937 613.394L692.401 626.768L689.494 634.26L674.237 628.34L684.816 646.315L681.459 654.966L670.266 635.341Z" fill="#EFEFEF"/>
<path d="M768.848 901.647L744.996 909.396L748.617 900.065L769.89 893.509L753.612 887.192L756.519 879.7L790.983 893.073L788.076 900.566L772.819 894.645L783.398 912.621L780.041 921.271L768.848 901.647Z" fill="#EFEFEF"/>
<path d="M339.033 172.593L358.9 187.9L349.155 190.182L331.729 176.329L335.711 193.331L327.886 195.163L319.457 159.169L327.282 157.337L331.013 173.271L339.873 154.388L348.907 152.273L339.033 172.593Z" fill="#EFEFEF"/>
<path d="M594.193 767.954L614.06 783.262L604.314 785.544L586.889 771.691L590.87 788.692L583.045 790.524L574.616 754.53L582.441 752.698L586.172 768.632L595.032 749.749L604.066 747.634L594.193 767.954Z" fill="#EFEFEF"/>
<path d="M649.976 1024.81L669.843 1040.11L660.098 1042.4L642.672 1028.54L646.653 1045.54L638.829 1047.38L630.4 1011.38L638.225 1009.55L641.956 1025.48L650.816 1006.6L659.85 1004.49L649.976 1024.81Z" fill="#EFEFEF"/>
<path d="M530.936 849.008L550.803 864.315L541.057 866.597L523.632 852.744L527.613 869.745L519.788 871.577L511.359 835.583L519.184 833.751L522.916 849.685L531.775 830.803L540.809 828.687L530.936 849.008Z" fill="#EFEFEF"/>
<path d="M522.976 980.807L542.843 996.115L533.098 998.397L515.672 984.544L519.653 1001.54L511.829 1003.38L503.4 967.383L511.225 965.551L514.956 981.485L523.816 962.603L532.85 960.487L522.976 980.807Z" fill="#EFEFEF"/>
<path d="M359.077 492.114L378.944 507.421L369.198 509.703L351.773 495.85L355.754 512.852L347.929 514.684L339.501 478.69L347.325 476.858L351.057 492.792L359.916 473.909L368.95 471.794L359.077 492.114Z" fill="#EFEFEF"/>
<path d="M879.786 555.874L899.653 571.181L889.907 573.464L872.482 559.611L876.463 576.612L868.638 578.444L860.21 542.45L868.034 540.618L871.766 556.552L880.625 537.669L889.659 535.554L879.786 555.874Z" fill="#EFEFEF"/>
<path d="M251.481 813.118L271.348 828.425L261.602 830.707L244.177 816.854L248.158 833.855L240.333 835.688L231.904 799.694L239.729 797.861L243.46 813.796L252.32 794.913L261.354 792.798L251.481 813.118Z" fill="#EFEFEF"/>
<path d="M33.9762 990.807L53.8433 1006.11L44.0979 1008.4L26.6723 994.544L30.6535 1011.54L22.8287 1013.38L14.4 977.383L22.2248 975.551L25.956 991.485L34.8156 972.603L43.8496 970.487L33.9762 990.807Z" fill="#EFEFEF"/>
<path d="M279.376 571.095L299.243 586.402L289.498 588.684L272.072 574.831L276.053 591.832L268.229 593.665L259.8 557.671L267.625 555.838L271.356 571.773L280.215 552.89L289.25 550.775L279.376 571.095Z" fill="#EFEFEF"/>
<path d="M816.026 373.892L835.893 389.199L826.147 391.481L808.722 377.628L812.703 394.629L804.878 396.462L796.449 360.468L804.274 358.635L808.005 374.569L816.865 355.687L825.899 353.571L816.026 373.892Z" fill="#EFEFEF"/>
<path d="M37.6183 595.725L57.4854 611.032L47.7399 613.314L30.3144 599.461L34.2955 616.462L26.4708 618.295L18.0421 582.301L25.8669 580.468L29.5981 596.402L38.4577 577.52L47.4917 575.404L37.6183 595.725Z" fill="#EFEFEF"/>
<path d="M53.5578 325.352L73.4248 340.659L63.6794 342.941L46.2539 329.088L50.235 346.089L42.4102 347.922L33.9815 311.928L41.8063 310.095L45.5376 326.029L54.3971 307.147L63.4312 305.031L53.5578 325.352Z" fill="#EFEFEF"/>
<path d="M473.314 553.218L493.181 568.525L483.436 570.807L466.01 556.954L469.991 573.956L462.167 575.788L453.738 539.794L461.563 537.962L465.294 553.896L474.153 535.013L483.188 532.898L473.314 553.218Z" fill="#EFEFEF"/>
<path d="M545.044 322.696L564.911 338.003L555.166 340.285L537.74 326.432L541.721 343.433L533.897 345.265L525.468 309.271L533.293 307.439L537.024 323.373L545.883 304.491L554.918 302.375L545.044 322.696Z" fill="#EFEFEF"/>
<path d="M606.651 829.082L626.518 844.389L616.773 846.672L599.347 832.819L603.328 849.82L595.503 851.652L587.075 815.658L594.9 813.826L598.631 829.76L607.49 810.877L616.524 808.762L606.651 829.082Z" fill="#EFEFEF"/>
<path d="M447.047 739.835L429.027 757.279L428.179 747.306L444.407 732.067L427.008 733.547L426.327 725.54L463.162 722.407L463.843 730.414L447.537 731.801L464.939 743.299L465.725 752.544L447.047 739.835Z" fill="#EFEFEF"/>
<path d="M33.771 830.935L15.7509 848.379L14.9026 838.406L31.1307 823.168L13.7324 824.647L13.0514 816.64L49.8861 813.507L50.5672 821.514L34.2609 822.901L51.6631 834.399L52.4494 843.644L33.771 830.935Z" fill="#EFEFEF"/>
<path d="M142.695 910.635L124.675 928.079L123.826 918.106L140.054 902.868L122.656 904.348L121.975 896.34L158.81 893.207L159.491 901.215L143.185 902.602L160.587 914.099L161.373 923.345L142.695 910.635Z" fill="#EFEFEF"/>
<path d="M146.073 989.632L128.053 1007.08L127.204 997.103L143.432 981.865L126.034 983.345L125.353 975.337L162.188 972.204L162.869 980.212L146.563 981.599L163.965 993.097L164.751 1002.34L146.073 989.632Z" fill="#EFEFEF"/>
<path d="M271.071 433.038L290.127 416.733L290.362 426.739L273.229 440.953L290.686 440.543L290.874 448.578L253.916 449.444L253.728 441.41L270.089 441.026L253.425 428.482L253.207 419.206L271.071 433.038Z" fill="#EFEFEF"/>
<path d="M320.219 379.904L339.276 363.599L339.51 373.605L322.378 387.819L339.834 387.41L340.022 395.444L303.065 396.31L302.876 388.276L319.237 387.893L302.573 375.348L302.356 366.072L320.219 379.904Z" fill="#EFEFEF"/>
<path d="M868.824 309.502L887.881 293.197L888.115 303.203L870.983 317.417L888.439 317.008L888.627 325.042L851.67 325.909L851.481 317.874L867.842 317.491L851.178 304.947L850.961 295.671L868.824 309.502Z" fill="#EFEFEF"/>
<path d="M460.805 178.87L479.862 162.565L480.097 172.571L462.964 186.785L480.42 186.375L480.609 194.41L443.651 195.276L443.463 187.242L459.823 186.858L443.16 174.314L442.942 165.038L460.805 178.87Z" fill="#EFEFEF"/>
<path d="M51.3209 411.008L56.9422 435.45L47.9658 431.022L43.3065 409.254L35.5823 424.914L28.3749 421.359L44.7283 388.205L51.9357 391.76L44.6962 406.437L63.533 397.481L71.8542 401.585L51.3209 411.008Z" fill="#EFEFEF"/>
<path d="M297.143 907.493L276.938 922.352L277.441 912.355L295.572 899.441L278.133 898.565L278.536 890.538L315.457 892.393L315.054 900.419L298.71 899.598L314.406 913.334L313.94 922.601L297.143 907.493Z" fill="#EFEFEF"/>
<path d="M574.819 275.974L554.614 290.833L555.116 280.837L573.248 267.922L555.809 267.046L556.212 259.02L593.133 260.874L592.73 268.901L576.386 268.08L592.081 281.816L591.616 291.082L574.819 275.974Z" fill="#EFEFEF"/>
<path d="M56.2526 56.4542L53.6545 31.5091L62.0239 36.9986L63.9933 59.1723L73.5699 44.5717L80.2898 48.9794L60.0147 79.891L53.2948 75.4834L62.2703 61.7992L42.4818 68.3911L34.7233 63.3023L56.2526 56.4542Z" fill="#202020"/>
<path d="M242.22 304.597L239.622 279.652L247.992 285.141L249.961 307.315L259.538 292.714L266.258 297.122L245.982 328.034L239.263 323.626L248.238 309.942L228.45 316.534L220.691 311.445L242.22 304.597Z" fill="#202020"/>
<path d="M230.265 661.92L227.667 636.975L236.037 642.465L238.006 664.639L247.583 650.038L254.303 654.446L234.027 685.357L227.307 680.95L236.283 667.265L216.495 673.857L208.736 668.769L230.265 661.92Z" fill="#EFEFEF"/>
<path d="M36.5754 910.135L11.657 912.978L17.0642 904.555L39.2175 902.368L24.5238 892.935L28.8653 886.172L59.9743 906.143L55.6327 912.906L41.8612 904.065L48.6468 923.788L43.6343 931.596L36.5754 910.135Z" fill="#EFEFEF"/>
<path d="M75.7307 944.38L50.8123 947.223L56.2195 938.8L78.3728 936.613L63.6791 927.18L68.0206 920.417L99.1296 940.389L94.788 947.151L81.0165 938.31L87.8021 958.033L82.7896 965.841L75.7307 944.38Z" fill="#EFEFEF"/>
<path d="M50.3588 529.676L72.1747 517.303L70.4972 527.171L50.9688 537.857L68.1829 540.784L66.8359 548.706L30.3911 542.51L31.7381 534.588L47.8717 537.33L33.9054 521.839L35.4605 512.692L50.3588 529.676Z" fill="#EFEFEF"/>
<path d="M546.41 193.273L543.812 168.328L552.182 173.817L554.151 195.991L563.728 181.391L570.448 185.798L550.172 216.71L543.452 212.302L552.428 198.618L532.64 205.21L524.881 200.121L546.41 193.273Z" fill="#EFEFEF"/>
<path d="M721.557 384.554L718.959 359.609L727.328 365.099L729.298 387.272L738.874 372.672L745.594 377.079L725.319 407.991L718.599 403.583L727.575 389.899L707.786 396.491L700.028 391.402L721.557 384.554Z" fill="#EFEFEF"/>
<path d="M148.05 78.0707L171.793 86.1519L163.304 91.4553L142.342 83.9631L151.594 98.7716L144.778 103.03L125.19 71.678L132.006 67.4198L140.677 81.2989L142.973 60.568L150.842 55.6517L148.05 78.0707Z" fill="#EFEFEF"/>
<path d="M531.568 468.144L555.31 476.226L546.822 481.529L525.859 474.037L535.111 488.845L528.296 493.104L508.708 461.752L515.524 457.494L524.195 471.373L526.49 450.642L534.359 445.725L531.568 468.144Z" fill="#EFEFEF"/>
<path d="M761.999 553.335L741.92 568.364L742.338 558.364L760.36 545.296L742.914 544.568L743.249 536.538L780.185 538.081L779.85 546.11L763.499 545.427L779.31 559.03L778.923 568.301L761.999 553.335Z" fill="#EFEFEF"/>
<path d="M765.984 832.286L745.906 847.315L746.323 837.315L764.345 824.247L746.899 823.519L747.235 815.489L784.17 817.032L783.835 825.061L767.484 824.378L783.295 837.981L782.908 847.252L765.984 832.286Z" fill="#EFEFEF"/>
<path d="M584.701 86.041L608.443 94.1221L599.955 99.4255L578.993 91.9334L588.245 106.742L581.429 111L561.841 79.6482L568.657 75.39L577.328 89.2691L579.624 68.5382L587.493 63.6219L584.701 86.041Z" fill="#EFEFEF"/>
<path d="M179.557 175.039L203.299 183.121L194.811 188.424L173.849 180.932L183.1 195.74L176.285 199.999L156.697 168.647L163.513 164.389L172.184 178.268L174.48 157.537L182.349 152.62L179.557 175.039Z" fill="#EFEFEF"/>
<path d="M388.107 597.452L411.849 605.533L403.361 610.837L382.398 603.344L391.65 618.153L384.835 622.411L365.247 591.059L372.063 586.801L380.734 600.68L383.03 579.949L390.898 575.033L388.107 597.452Z" fill="#EFEFEF"/>
<path d="M579.695 510.927L568.265 533.25L564.245 524.084L574.691 504.426L558.7 511.438L555.472 504.078L589.328 489.232L592.555 496.592L577.568 503.164L597.748 508.435L601.475 516.932L579.695 510.927Z" fill="#EFEFEF"/>
<path d="M302.208 686.915L290.777 709.238L286.757 700.072L297.203 680.414L281.212 687.426L277.984 680.066L311.84 665.22L315.067 672.58L300.08 679.152L320.261 684.423L323.987 692.92L302.208 686.915Z" fill="#EFEFEF"/>
<path d="M890.091 947.038L878.66 969.361L874.64 960.195L885.086 940.537L869.095 947.549L865.868 940.189L899.723 925.343L902.951 932.703L887.963 939.275L908.144 944.546L911.87 953.043L890.091 947.038Z" fill="#EFEFEF"/>
<path d="M82.5476 712.089L95.3267 690.509L98.7763 699.905L87.1438 718.885L103.535 712.867L106.305 720.411L71.6019 733.152L68.8322 725.608L84.1948 719.968L64.3755 713.469L61.1778 704.759L82.5476 712.089Z" fill="#EFEFEF"/>
<path d="M218.038 605.468L230.817 583.888L234.267 593.284L222.635 612.263L239.026 606.246L241.796 613.79L207.093 626.53L204.323 618.986L219.685 613.346L199.866 606.847L196.669 598.137L218.038 605.468Z" fill="#EFEFEF"/>
<path d="M423.564 458.597L436.343 437.017L439.793 446.412L428.16 465.392L444.552 459.375L447.321 466.919L412.618 479.659L409.849 472.115L425.211 466.475L405.392 459.976L402.194 451.266L423.564 458.597Z" fill="#EFEFEF"/>
<path d="M66.6488 265.367L90.3912 273.448L81.9027 278.751L60.9404 271.259L70.1923 286.067L63.3767 290.326L43.789 258.974L50.6046 254.716L59.2758 268.595L61.5715 247.864L69.4404 242.948L66.6488 265.367Z" fill="#EFEFEF"/>
<path d="M737.46 290.605L761.203 298.687L752.714 303.99L731.752 296.498L741.004 311.306L734.188 315.564L714.6 284.213L721.416 279.954L730.087 293.834L732.383 273.103L740.252 268.186L737.46 290.605Z" fill="#EFEFEF"/>
<path d="M475.778 242.496L499.52 250.577L491.032 255.88L470.069 248.388L479.321 263.196L472.506 267.455L452.918 236.103L459.733 231.845L468.405 245.724L470.7 224.993L478.569 220.077L475.778 242.496Z" fill="#EFEFEF"/>
<path d="M349.703 555.984L373.445 564.065L364.957 569.369L343.995 561.877L353.246 576.685L346.431 580.943L326.843 549.592L333.659 545.333L342.33 559.212L344.626 538.482L352.495 533.565L349.703 555.984Z" fill="#EFEFEF"/>
<path d="M841.738 783.46L865.481 791.542L856.992 796.845L836.03 789.353L845.282 804.161L838.466 808.419L818.878 777.068L825.694 772.809L834.365 786.689L836.661 765.958L844.53 761.041L841.738 783.46Z" fill="#EFEFEF"/>
<path d="M734.804 662.082L758.546 670.163L750.057 675.466L729.095 667.974L738.347 682.783L731.531 687.041L711.944 655.689L718.759 651.431L727.431 665.31L729.726 644.579L737.595 639.663L734.804 662.082Z" fill="#EFEFEF"/>
<path d="M218.738 959.46L242.481 967.542L233.992 972.845L213.03 965.353L222.282 980.161L215.466 984.419L195.878 953.068L202.694 948.809L211.365 962.689L213.661 941.958L221.53 937.041L218.738 959.46Z" fill="#EFEFEF"/>
<path d="M667.68 918.911L691.422 926.992L682.933 932.295L661.971 924.803L671.223 939.611L664.407 943.87L644.82 912.518L651.635 908.26L660.307 922.139L662.602 901.408L670.471 896.492L667.68 918.911Z" fill="#EFEFEF"/>
<path d="M888.891 830.781L912.633 838.862L904.145 844.166L883.183 836.674L892.434 851.482L885.619 855.74L866.031 824.388L872.847 820.13L881.518 834.009L883.814 813.278L891.683 808.362L888.891 830.781Z" fill="#EFEFEF"/>
<path d="M445.847 902.97L469.589 911.051L461.101 916.355L440.139 908.863L449.391 923.671L442.575 927.929L422.987 896.577L429.803 892.319L438.474 906.198L440.77 885.467L448.639 880.551L445.847 902.97Z" fill="#EFEFEF"/>
<path d="M472.738 1052.46L496.481 1060.54L487.992 1065.84L467.03 1058.35L476.282 1073.16L469.466 1077.42L449.878 1046.07L456.694 1041.81L465.365 1055.69L467.661 1034.96L475.53 1030.04L472.738 1052.46Z" fill="#EFEFEF"/>
<path d="M327.738 954.46L351.481 962.542L342.992 967.845L322.03 960.353L331.282 975.161L324.466 979.419L304.878 948.068L311.694 943.809L320.365 957.689L322.661 936.958L330.53 932.041L327.738 954.46Z" fill="#EFEFEF"/>
<path d="M182.214 857.348L205.957 865.429L197.468 870.733L176.506 863.24L185.758 878.049L178.942 882.307L159.354 850.955L166.17 846.697L174.841 860.576L177.137 839.845L185.006 834.929L182.214 857.348Z" fill="#EFEFEF"/>
<path d="M386.738 1005.46L410.481 1013.54L401.992 1018.84L381.03 1011.35L390.282 1026.16L383.466 1030.42L363.878 999.068L370.694 994.809L379.365 1008.69L381.661 987.958L389.53 983.041L386.738 1005.46Z" fill="#EFEFEF"/>
<path d="M92.7382 1034.46L116.481 1042.54L107.992 1047.84L87.0297 1040.35L96.2816 1055.16L89.466 1059.42L69.8783 1028.07L76.6939 1023.81L85.3652 1037.69L87.6609 1016.96L95.5298 1012.04L92.7382 1034.46Z" fill="#EFEFEF"/>
<path d="M192.841 348.594L216.584 356.675L208.095 361.978L187.133 354.486L196.385 369.295L189.569 373.553L169.981 342.201L176.797 337.943L185.468 351.822L187.764 331.091L195.633 326.175L192.841 348.594Z" fill="#EFEFEF"/>
<path d="M570.09 565.113L593.832 573.194L585.344 578.498L564.381 571.006L573.633 585.814L566.818 590.072L547.23 558.72L554.045 554.462L562.717 568.341L565.012 547.61L572.881 542.694L570.09 565.113Z" fill="#202020"/>
<path d="M858.339 871.96L882.082 880.041L873.593 885.344L852.631 877.852L861.883 892.661L855.067 896.919L835.479 865.567L842.295 861.309L850.966 875.188L853.262 854.457L861.131 849.541L858.339 871.96Z" fill="#202020"/>
<path d="M253.944 235.685L277.687 243.766L269.198 249.07L248.236 241.577L257.488 256.386L250.672 260.644L231.084 229.292L237.9 225.034L246.571 238.913L248.867 218.182L256.736 213.266L253.944 235.685Z" fill="#EFEFEF"/>
<path d="M590.993 667.822L579.562 690.146L575.542 680.979L585.988 661.321L569.997 668.334L566.77 660.974L600.625 646.128L603.853 653.488L588.865 660.06L609.046 665.33L612.772 673.828L590.993 667.822Z" fill="#EFEFEF"/>
<path d="M217.258 407.896L230.037 386.315L233.487 395.711L221.854 414.691L238.246 408.673L241.015 416.218L206.312 428.958L203.543 421.414L218.905 415.774L199.086 409.275L195.888 400.565L217.258 407.896Z" fill="#EFEFEF"/>
<path d="M291.419 501.413L304.198 479.833L307.648 489.228L296.015 508.208L312.407 502.191L315.176 509.735L280.473 522.475L277.704 514.931L293.066 509.291L273.247 502.792L270.049 494.082L291.419 501.413Z" fill="#EFEFEF"/>
<path d="M152.991 423.439L176.733 431.521L168.245 436.824L147.282 429.332L156.534 444.14L149.718 448.398L130.131 417.047L136.946 412.788L145.618 426.668L147.913 405.937L155.782 401.02L152.991 423.439Z" fill="#EFEFEF"/>
<path d="M684.562 441.676L709.276 437.409L704.361 446.128L682.37 449.582L697.58 458.157L693.634 465.157L661.431 447.004L665.377 440.003L679.633 448.039L671.727 428.738L676.283 420.656L684.562 441.676Z" fill="#EFEFEF"/>
<path d="M219.642 545.287L244.357 541.019L239.442 549.738L217.45 553.192L232.661 561.767L228.715 568.768L196.511 550.614L200.458 543.613L214.714 551.65L206.808 532.349L211.364 524.266L219.642 545.287Z" fill="#EFEFEF"/>
<path d="M152.973 473.225L166.782 494.161L156.825 493.149L144.851 474.383L143.087 491.754L135.092 490.943L138.826 454.164L146.822 454.976L145.168 471.257L159.687 456.282L168.918 457.22L152.973 473.225Z" fill="#EFEFEF"/>
<path d="M884.581 717.567L898.39 738.503L888.432 737.492L876.459 718.725L874.695 736.097L866.7 735.285L870.434 698.506L878.43 699.318L876.776 715.6L891.295 700.625L900.526 701.562L884.581 717.567Z" fill="#EFEFEF"/>
<path d="M298.661 276.705L323.375 272.438L318.46 281.157L296.469 284.611L311.68 293.185L307.733 300.186L275.53 282.033L279.476 275.032L293.732 283.068L285.826 263.767L290.383 255.684L298.661 276.705Z" fill="#EFEFEF"/>
<path d="M679.894 553.315L704.609 549.047L699.694 557.766L677.702 561.22L692.913 569.795L688.966 576.796L656.763 558.642L660.71 551.641L674.966 559.678L667.06 540.376L671.616 532.294L679.894 553.315Z" fill="#EFEFEF"/>
<path d="M286.706 634.028L311.42 629.761L306.505 638.48L284.514 641.934L299.724 650.509L295.778 657.509L263.575 639.356L267.521 632.355L281.777 640.391L273.871 621.09L278.428 613.008L286.706 634.028Z" fill="#EFEFEF"/>
<path d="M875.589 1022.71L900.304 1018.44L895.388 1027.16L873.397 1030.61L888.608 1039.19L884.661 1046.19L852.458 1028.04L856.404 1021.03L870.66 1029.07L862.755 1009.77L867.311 1001.69L875.589 1022.71Z" fill="#EFEFEF"/>
<path d="M275.254 740.585L299.968 736.318L295.053 745.037L273.062 748.491L288.272 757.065L284.326 764.066L252.122 745.912L256.069 738.912L270.325 746.948L262.419 727.647L266.975 719.564L275.254 740.585Z" fill="#EFEFEF"/>
<path d="M806.589 997.708L831.304 993.44L826.388 1002.16L804.397 1005.61L819.608 1014.19L815.661 1021.19L783.458 1003.04L787.404 996.034L801.66 1004.07L793.755 984.769L798.311 976.687L806.589 997.708Z" fill="#EFEFEF"/>
<path d="M729.589 1039.71L754.304 1035.44L749.388 1044.16L727.397 1047.61L742.608 1056.19L738.661 1063.19L706.458 1045.04L710.404 1038.03L724.66 1046.07L716.755 1026.77L721.311 1018.69L729.589 1039.71Z" fill="#EFEFEF"/>
<path d="M33.599 658.467L29.0896 633.796L37.8565 638.625L41.5259 660.581L49.9509 645.287L56.99 649.165L39.153 681.545L32.1139 677.667L40.0101 663.333L20.7874 671.428L12.6604 666.951L33.599 658.467Z" fill="#EFEFEF"/>
<path d="M38.9125 750.123L34.4031 725.451L43.1699 730.281L46.8394 752.237L55.2644 736.943L62.3035 740.821L44.4665 773.201L37.4274 769.323L45.3236 754.989L26.1008 763.083L17.9739 758.607L38.9125 750.123Z" fill="#202020"/>
<path d="M556.373 1020.93L551.864 996.255L560.631 1001.08L564.3 1023.04L572.725 1007.75L579.764 1011.62L561.927 1044L554.888 1040.13L562.785 1025.79L543.562 1033.89L535.435 1029.41L556.373 1020.93Z" fill="#202020"/>
<path d="M115.472 542.226L129.281 563.162L119.323 562.151L107.35 543.384L105.586 560.756L97.5903 559.944L101.325 523.165L109.32 523.977L107.667 540.259L122.185 525.284L131.416 526.221L115.472 542.226Z" fill="#EFEFEF"/>
<path d="M651.154 102.946L648.556 78.0008L656.926 83.4903L658.895 105.664L668.472 91.0634L675.192 95.4711L654.917 126.383L648.197 121.975L657.172 108.291L637.384 114.883L629.625 109.794L651.154 102.946Z" fill="#EFEFEF"/>
</svg>
