<svg width="171" height="46" viewBox="0 0 171 46" fill="none" xmlns="http://www.w3.org/2000/svg">
<path d="M115.181 45.5893C112.197 45.5893 109.813 44.7679 108.03 43.125C106.246 41.4639 105.354 39.2825 105.354 36.581C105.354 33.5325 106.483 31.1413 108.739 29.4071C111.014 27.673 114.153 26.806 118.156 26.806C120.158 26.806 122.314 27.0889 124.625 27.6548V26.9702C124.625 25.5282 124.134 24.4694 123.151 23.794C122.187 23.1187 120.649 22.781 118.538 22.781C117.064 22.781 115.636 22.9544 114.253 23.3012C113.288 23.5463 112.219 23.8964 111.045 24.3513C110.22 24.6709 109.283 24.2615 108.992 23.4264L107.694 19.7083C107.436 18.9664 107.782 18.1456 108.506 17.8417C110.25 17.1106 111.892 16.5757 113.434 16.2369C115.363 15.8171 117.529 15.6071 119.931 15.6071C124.225 15.6071 127.546 16.6202 129.894 18.6464C132.241 20.6544 133.415 23.5111 133.415 27.2167V43.6807C133.415 44.5231 132.732 45.206 131.89 45.206H126.256C125.663 45.206 125.174 44.7424 125.142 44.1505C125.09 43.1899 123.885 42.7009 123.082 43.2303C122.313 43.7372 121.472 44.1767 120.558 44.5488C118.83 45.2425 117.037 45.5893 115.181 45.5893ZM114.499 36.0607C114.499 37.0099 114.826 37.7583 115.481 38.306C116.155 38.8353 117.083 39.1 118.265 39.1C120.031 39.1 121.523 38.5798 122.742 37.5393C123.623 36.774 124.224 35.8847 124.544 34.8714C124.763 34.1797 124.291 33.494 123.588 33.3176C122.072 32.9376 120.671 32.7476 119.385 32.7476C116.127 32.7476 114.499 33.852 114.499 36.0607Z" fill="white"/>
<path d="M154.979 46C149.738 46 145.689 44.3206 142.832 40.9619C139.975 37.5849 138.546 32.7202 138.546 26.3679C138.546 23.3194 138.765 20.6452 139.201 18.3452C139.638 16.027 140.302 13.9917 141.194 12.2393C142.086 10.4687 143.259 8.97183 144.715 7.74881C146.189 6.52579 147.9 5.52183 149.847 4.7369C151.812 3.93373 154.132 3.29484 156.807 2.82024C159.719 2.29087 161.894 1.83452 163.331 1.45119C164.202 1.21108 165.026 0.941594 165.806 0.642747C166.634 0.325314 167.587 0.705195 167.905 1.53288L169.807 6.48766C170.084 7.20754 169.781 8.02478 169.084 8.35344C167.883 8.91909 166.657 9.39294 165.406 9.775C163.75 10.2861 161.448 10.7881 158.5 11.281C154.715 11.9198 152.022 12.9238 150.42 14.2929C149.894 14.737 149.434 15.2619 149.041 15.8678C148.221 17.1327 150.084 18.2269 151.456 17.6038C153.182 16.8203 155.157 16.4286 157.381 16.4286C161.384 16.4286 164.632 17.7885 167.125 20.5083C169.637 23.2099 170.892 26.6964 170.892 30.9679C170.892 35.4036 169.409 39.0179 166.443 41.8107C163.477 44.6036 159.655 46 154.979 46ZM147.991 30.8583C147.991 32.9028 148.619 34.5639 149.874 35.8417C151.148 37.1194 152.777 37.7583 154.76 37.7583C156.744 37.7583 158.363 37.1194 159.619 35.8417C160.875 34.5639 161.502 32.9028 161.502 30.8583C161.502 28.7774 160.875 27.098 159.619 25.8202C158.381 24.5425 156.762 23.9036 154.76 23.9036C152.74 23.9036 151.103 24.5425 149.847 25.8202C148.61 27.098 147.991 28.7774 147.991 30.8583Z" fill="white"/>
<path d="M67.1349 38.382C66.9372 37.5492 67.4668 36.7258 68.2887 36.487C69.8137 36.0438 70.8924 35.5026 71.5247 34.8633C72.3492 34.0298 72.8552 32.4831 73.0426 30.2232L74.187 16.9743C74.2552 16.1858 74.9151 15.5804 75.7066 15.5804H98.389C99.2313 15.5804 99.9142 16.2632 99.9142 17.1056V43.4797C99.9142 44.3221 99.2313 45.005 98.389 45.005H90.0763V25.8302C90.0763 24.9878 89.3934 24.3049 88.551 24.3049H84.7374C83.9426 24.3049 83.281 24.9153 83.2171 25.7076L82.7119 31.9737C82.3558 36.1785 81.1284 39.2997 79.0297 41.3373C77.1438 43.1682 74.2065 44.4756 70.2176 45.2596C69.4357 45.4133 68.6842 44.9064 68.5001 44.1311L67.1349 38.382Z" fill="white"/>
<path d="M19.7057 45.2578C19.1651 45.2578 18.6649 44.9717 18.3909 44.5057L12.7005 34.8283C12.4265 34.3623 11.9263 34.0762 11.3858 34.0762H11.3318C10.4895 34.0762 9.80661 34.7591 9.80661 35.6014V43.7326C9.80661 44.5749 9.12375 45.2578 8.28139 45.2578H1.52522C0.682862 45.2578 0 44.5749 0 43.7326L0 17.1056C0 16.2632 0.682863 15.5804 1.52522 15.5804H8.28139C9.12375 15.5804 9.80661 16.2632 9.80661 17.1056V24.34C9.80661 25.1823 10.4895 25.8652 11.3318 25.8652H11.5487C12.0915 25.8652 12.5935 25.5766 12.8667 25.1076L17.974 16.338C18.2472 15.8689 18.7492 15.5804 19.292 15.5804H26.8658C28.0632 15.5804 28.7936 16.8969 28.1599 17.9128L21.2 29.0706C20.8935 29.5619 20.8917 30.1844 21.1953 30.6775L28.7407 42.9329C29.3663 43.9491 28.6352 45.2578 27.4419 45.2578H19.7057Z" fill="white"/>
<ellipse cx="47.656" cy="30.1456" rx="15.6311" ry="15.8544" fill="white"/>
</svg>
