<svg width="945" height="930" viewBox="0 0 945 930" fill="none" xmlns="http://www.w3.org/2000/svg">
<g clip-path="url(#clip0_338_973)">
<rect width="945" height="930" rx="15" fill="#E86229"/>
<path d="M-77.0293 393.532C92.3341 383.791 433.585 411.996 443.68 602.746" stroke="white" stroke-opacity="0.3" stroke-width="92.9838" stroke-linecap="round" stroke-dasharray="2.66 2.66"/>
<path d="M68.4243 173.348C139.712 194.38 260.369 42.5069 182.662 -33.2085" stroke="white" stroke-opacity="0.3" stroke-width="92.9838"/>
<circle cx="67.7602" cy="176.005" r="47.8203" fill="white"/>
<path d="M-172.669 704.015C-110.211 747.122 34.507 807.472 113.71 704.015C212.713 574.695 125.005 10.3194 566.202 223.362C919.16 393.796 1261.22 114.473 1388.13 -46.4919" stroke="white" stroke-opacity="0.3" stroke-width="92.9838"/>
<path d="M1121.13 447.651C1034.7 572.187 496.15 642.253 594.447 127.521" stroke="white" stroke-opacity="0.3" stroke-width="92.9838"/>
<ellipse cx="45.9222" cy="47.5442" rx="45.9222" ry="47.5442" transform="matrix(-0.373854 -0.927487 -0.938751 0.344597 656.28 155.587)" fill="white"/>
<ellipse cx="45.9222" cy="46.5864" rx="45.9222" ry="46.5864" transform="matrix(-0.373854 -0.927487 -0.938751 0.344597 504.849 629.804)" fill="white"/>
<ellipse cx="45.9222" cy="46.5864" rx="45.9222" ry="46.5864" transform="matrix(-0.373854 -0.927487 -0.938751 0.344597 792.629 729.43)" fill="white"/>
<path d="M281.013 876.416C362.483 745.844 554.535 656.068 869.511 1024.43C1184.49 1392.8 1576.61 1302.23 1733.3 1210.9C1821.88 1163.42 2043.04 1135.1 2166.01 1377.07" stroke="white" stroke-opacity="0.3" stroke-width="92.9838"/>
<circle cx="282.689" cy="872.457" r="47.8203" transform="rotate(24.8723 282.689 872.457)" fill="white"/>
<path d="M1009.55 408.686C898.033 400.34 686.299 447.456 731.528 702.692" stroke="white" stroke-opacity="0.3" stroke-width="92.9838" stroke-linecap="round" stroke-dasharray="2.66 2.66"/>
</g>
<defs>
<clipPath id="clip0_338_973">
<rect width="945" height="930" rx="15" fill="white"/>
</clipPath>
</defs>
</svg>
